<?xml version="1.0" encoding="UTF-8" standalone="no"?><!DOCTYPE svg PUBLIC "-//W3C//DTD SVG 1.1//EN" "http://www.w3.org/Graphics/SVG/1.1/DTD/svg11.dtd"><svg width="100%" height="100%" viewBox="0 0 136 42" version="1.1" xmlns="http://www.w3.org/2000/svg" xmlns:xlink="http://www.w3.org/1999/xlink" xml:space="preserve" xmlns:serif="http://www.serif.com/" style="fill-rule:evenodd;clip-rule:evenodd;stroke-miterlimit:22.9256;"><g><path d="M50.86,11.371l0.456,1.429l0.995,0l-1.638,-5.041l-1.174,0l-1.616,5.041l0.95,0l0.434,-1.429l1.593,0Zm-1.444,-0.695l0.389,-1.242c0.028,-0.101 0.055,-0.204 0.082,-0.313c0.028,-0.107 0.054,-0.215 0.08,-0.321c0.026,-0.107 0.053,-0.211 0.077,-0.308l0.015,0c0.038,0.147 0.078,0.303 0.119,0.465c0.042,0.163 0.087,0.321 0.136,0.477l0.396,1.242l-1.294,0Zm4.443,-3.194l-0.92,0l0,5.318l0.92,0l0,-1.242l0.307,-0.366l1.047,1.608l1.129,0l-1.541,-2.154l1.354,-1.488l-1.107,0l-0.89,1.174c-0.046,0.064 -0.093,0.133 -0.142,0.207c-0.05,0.074 -0.097,0.147 -0.142,0.219l-0.015,0l0,-3.276Zm5.796,3.134c0.002,-0.202 -0.022,-0.395 -0.071,-0.578c-0.048,-0.184 -0.129,-0.348 -0.243,-0.493c-0.113,-0.144 -0.268,-0.258 -0.462,-0.341c-0.195,-0.084 -0.437,-0.128 -0.727,-0.129c-0.192,0.001 -0.372,0.016 -0.537,0.048c-0.166,0.03 -0.314,0.068 -0.447,0.117c-0.13,0.048 -0.241,0.101 -0.332,0.157l0.179,0.598c0.084,-0.052 0.178,-0.099 0.284,-0.139c0.106,-0.04 0.219,-0.073 0.337,-0.095c0.118,-0.023 0.238,-0.035 0.359,-0.035c0.159,0.001 0.289,0.024 0.388,0.066c0.098,0.042 0.173,0.096 0.224,0.162c0.051,0.066 0.085,0.135 0.104,0.207c0.017,0.072 0.026,0.14 0.024,0.201l0,0.06c-0.45,-0.003 -0.836,0.047 -1.159,0.15c-0.321,0.103 -0.568,0.257 -0.74,0.462c-0.174,0.204 -0.261,0.459 -0.262,0.764c0,0.139 0.026,0.274 0.076,0.402c0.05,0.13 0.123,0.245 0.222,0.347c0.097,0.103 0.217,0.184 0.359,0.243c0.141,0.06 0.304,0.091 0.487,0.092c0.16,-0.001 0.308,-0.021 0.444,-0.062c0.136,-0.042 0.257,-0.099 0.364,-0.172c0.107,-0.073 0.197,-0.156 0.269,-0.252l0.023,0l0.067,0.404l0.83,0c-0.022,-0.115 -0.037,-0.247 -0.046,-0.399c-0.01,-0.151 -0.014,-0.311 -0.014,-0.476l0,-1.309Zm-0.897,0.905c0,0.034 0,0.067 -0.003,0.101c-0.002,0.034 -0.008,0.067 -0.02,0.101c-0.03,0.089 -0.078,0.171 -0.144,0.247c-0.066,0.075 -0.149,0.135 -0.247,0.182c-0.097,0.047 -0.209,0.071 -0.334,0.072c-0.099,0 -0.187,-0.019 -0.266,-0.056c-0.078,-0.038 -0.14,-0.095 -0.187,-0.172c-0.046,-0.077 -0.069,-0.176 -0.07,-0.296c0.001,-0.137 0.037,-0.251 0.107,-0.341c0.069,-0.089 0.164,-0.16 0.284,-0.209c0.119,-0.051 0.255,-0.085 0.406,-0.105c0.152,-0.019 0.309,-0.028 0.474,-0.025l0,0.501Zm4.308,-4.039l0,2.065l-0.015,0c-0.055,-0.092 -0.131,-0.171 -0.227,-0.242c-0.097,-0.072 -0.212,-0.126 -0.345,-0.167c-0.135,-0.042 -0.286,-0.062 -0.453,-0.063c-0.22,0 -0.429,0.045 -0.624,0.132c-0.197,0.088 -0.37,0.216 -0.521,0.383c-0.152,0.168 -0.271,0.372 -0.357,0.612c-0.086,0.24 -0.128,0.513 -0.128,0.818c0.001,0.282 0.042,0.536 0.12,0.764c0.08,0.228 0.191,0.424 0.334,0.587c0.142,0.164 0.306,0.291 0.496,0.378c0.188,0.088 0.392,0.132 0.613,0.133c0.176,-0.001 0.339,-0.027 0.491,-0.081c0.152,-0.053 0.287,-0.128 0.404,-0.227c0.118,-0.098 0.213,-0.214 0.287,-0.35l0.015,0l0.044,0.576l0.816,0c-0.005,-0.084 -0.01,-0.181 -0.015,-0.293c-0.004,-0.111 -0.008,-0.229 -0.01,-0.355c-0.004,-0.125 -0.005,-0.251 -0.005,-0.377l0,-4.293l-0.92,0Zm0,3.74c0,0.048 -0.001,0.095 -0.007,0.139c-0.004,0.045 -0.012,0.089 -0.023,0.13c-0.031,0.133 -0.085,0.248 -0.162,0.345c-0.077,0.097 -0.17,0.172 -0.279,0.225c-0.109,0.053 -0.226,0.08 -0.352,0.081c-0.194,-0.001 -0.36,-0.053 -0.496,-0.151c-0.136,-0.099 -0.238,-0.236 -0.309,-0.409c-0.071,-0.173 -0.107,-0.374 -0.107,-0.6c0,-0.169 0.019,-0.326 0.061,-0.471c0.04,-0.144 0.098,-0.272 0.177,-0.38c0.078,-0.108 0.174,-0.192 0.289,-0.253c0.113,-0.061 0.244,-0.091 0.393,-0.092c0.139,0.001 0.264,0.031 0.374,0.088c0.108,0.058 0.198,0.135 0.27,0.232c0.071,0.096 0.121,0.205 0.148,0.323c0.008,0.039 0.014,0.08 0.018,0.123c0.004,0.044 0.005,0.085 0.005,0.124l0,0.546Zm4.996,0.015c0.007,-0.041 0.015,-0.095 0.021,-0.161c0.005,-0.066 0.009,-0.142 0.009,-0.228c0,-0.162 -0.017,-0.325 -0.05,-0.491c-0.034,-0.167 -0.089,-0.327 -0.162,-0.479c-0.075,-0.152 -0.173,-0.289 -0.296,-0.409c-0.122,-0.121 -0.27,-0.217 -0.446,-0.287c-0.176,-0.069 -0.381,-0.106 -0.617,-0.107c-0.233,0.001 -0.445,0.037 -0.633,0.107c-0.188,0.07 -0.354,0.167 -0.497,0.292c-0.144,0.125 -0.263,0.269 -0.359,0.435c-0.097,0.165 -0.169,0.343 -0.217,0.534c-0.049,0.192 -0.074,0.389 -0.074,0.592c0.001,0.374 0.076,0.698 0.224,0.972c0.149,0.274 0.362,0.487 0.641,0.638c0.279,0.151 0.617,0.227 1.012,0.23c0.263,-0.002 0.502,-0.024 0.715,-0.067c0.214,-0.042 0.4,-0.097 0.557,-0.165l-0.135,-0.629c-0.093,0.033 -0.192,0.062 -0.293,0.087c-0.102,0.025 -0.21,0.043 -0.329,0.057c-0.117,0.014 -0.245,0.021 -0.387,0.021c-0.149,0 -0.29,-0.017 -0.422,-0.055c-0.132,-0.036 -0.249,-0.093 -0.353,-0.169c-0.103,-0.076 -0.184,-0.175 -0.245,-0.293c-0.061,-0.12 -0.096,-0.261 -0.102,-0.425l2.438,0Zm-2.438,-0.644c0.008,-0.094 0.031,-0.194 0.067,-0.296c0.037,-0.104 0.088,-0.2 0.156,-0.289c0.067,-0.089 0.153,-0.162 0.255,-0.218c0.102,-0.057 0.225,-0.085 0.367,-0.086c0.152,0.001 0.278,0.032 0.378,0.09c0.099,0.06 0.176,0.136 0.233,0.229c0.056,0.092 0.094,0.188 0.115,0.289c0.023,0.102 0.032,0.196 0.029,0.281l-1.6,0Zm3.208,2.207l0.898,0l0,-2.154c0,-0.053 0.003,-0.105 0.011,-0.156c0.007,-0.052 0.019,-0.102 0.033,-0.151c0.03,-0.085 0.077,-0.166 0.136,-0.243c0.061,-0.078 0.136,-0.143 0.225,-0.194c0.088,-0.051 0.19,-0.078 0.305,-0.079c0.142,0.001 0.26,0.039 0.353,0.113c0.092,0.072 0.162,0.174 0.207,0.303c0.046,0.13 0.068,0.281 0.068,0.452l0,2.109l0.898,0l0,-2.184c0,-0.054 0.004,-0.107 0.011,-0.162c0.008,-0.054 0.019,-0.102 0.034,-0.145c0.032,-0.088 0.08,-0.169 0.139,-0.243c0.061,-0.072 0.135,-0.13 0.22,-0.176c0.085,-0.043 0.179,-0.066 0.284,-0.067c0.147,0 0.269,0.039 0.365,0.116c0.096,0.076 0.169,0.186 0.216,0.329c0.046,0.143 0.07,0.317 0.07,0.52l0,2.012l0.897,0l0,-2.146c-0.001,-0.291 -0.036,-0.538 -0.104,-0.74c-0.069,-0.202 -0.161,-0.364 -0.277,-0.487c-0.116,-0.124 -0.246,-0.213 -0.388,-0.269c-0.143,-0.056 -0.292,-0.084 -0.442,-0.083c-0.152,0 -0.29,0.019 -0.411,0.055c-0.122,0.038 -0.234,0.091 -0.337,0.162c-0.083,0.053 -0.161,0.116 -0.235,0.192c-0.074,0.075 -0.143,0.164 -0.207,0.264l-0.015,0c-0.052,-0.136 -0.128,-0.253 -0.225,-0.354c-0.096,-0.101 -0.212,-0.178 -0.344,-0.234c-0.134,-0.056 -0.28,-0.084 -0.44,-0.085c-0.155,0.001 -0.293,0.02 -0.413,0.057c-0.121,0.037 -0.227,0.087 -0.317,0.146c-0.089,0.061 -0.168,0.129 -0.231,0.201c-0.065,0.072 -0.119,0.145 -0.161,0.217l-0.023,0l-0.044,-0.538l-0.786,0c0.008,0.155 0.015,0.324 0.021,0.502c0.006,0.179 0.009,0.373 0.009,0.582l0,2.558Zm7.263,0l0,-3.642l-0.921,0l0,3.642l0.921,0Zm-0.457,-5.161c-0.103,0.001 -0.193,0.024 -0.27,0.066c-0.076,0.044 -0.137,0.104 -0.18,0.179c-0.043,0.076 -0.065,0.16 -0.066,0.256c0.001,0.091 0.023,0.174 0.064,0.248c0.042,0.074 0.101,0.134 0.177,0.178c0.076,0.044 0.165,0.067 0.268,0.068c0.107,-0.001 0.201,-0.024 0.279,-0.068c0.077,-0.044 0.137,-0.104 0.179,-0.178c0.043,-0.074 0.065,-0.157 0.065,-0.248c-0.002,-0.096 -0.025,-0.18 -0.067,-0.256c-0.042,-0.075 -0.101,-0.135 -0.177,-0.179c-0.076,-0.042 -0.167,-0.065 -0.272,-0.066Zm4.278,2.977c0.002,-0.202 -0.022,-0.395 -0.071,-0.578c-0.048,-0.184 -0.129,-0.348 -0.243,-0.493c-0.113,-0.144 -0.268,-0.258 -0.462,-0.341c-0.195,-0.084 -0.437,-0.128 -0.727,-0.129c-0.192,0.001 -0.372,0.016 -0.537,0.048c-0.166,0.03 -0.314,0.068 -0.447,0.117c-0.13,0.048 -0.241,0.101 -0.332,0.157l0.179,0.598c0.084,-0.052 0.178,-0.099 0.284,-0.139c0.106,-0.04 0.219,-0.073 0.337,-0.095c0.118,-0.023 0.238,-0.035 0.359,-0.035c0.16,0.001 0.289,0.024 0.387,0.066c0.099,0.042 0.174,0.096 0.225,0.162c0.051,0.066 0.085,0.135 0.103,0.207c0.018,0.072 0.027,0.14 0.025,0.201l0,0.06c-0.45,-0.003 -0.836,0.047 -1.159,0.15c-0.321,0.103 -0.568,0.257 -0.74,0.462c-0.174,0.204 -0.261,0.459 -0.262,0.764c0,0.139 0.026,0.274 0.076,0.402c0.05,0.13 0.123,0.245 0.222,0.347c0.097,0.103 0.217,0.184 0.359,0.243c0.141,0.06 0.304,0.091 0.487,0.092c0.16,-0.001 0.308,-0.021 0.444,-0.062c0.136,-0.042 0.257,-0.099 0.364,-0.172c0.107,-0.073 0.197,-0.156 0.269,-0.252l0.023,0l0.067,0.404l0.83,0c-0.022,-0.115 -0.037,-0.247 -0.046,-0.399c-0.01,-0.151 -0.014,-0.311 -0.014,-0.476l0,-1.309Zm-0.897,0.905c0,0.034 0,0.067 -0.003,0.101c-0.002,0.034 -0.009,0.067 -0.02,0.101c-0.03,0.089 -0.078,0.171 -0.144,0.247c-0.066,0.075 -0.149,0.135 -0.247,0.182c-0.097,0.047 -0.21,0.071 -0.334,0.072c-0.099,0 -0.187,-0.019 -0.266,-0.056c-0.078,-0.038 -0.14,-0.095 -0.187,-0.172c-0.046,-0.077 -0.069,-0.176 -0.071,-0.296c0.002,-0.137 0.038,-0.251 0.108,-0.341c0.069,-0.089 0.164,-0.16 0.284,-0.209c0.12,-0.051 0.255,-0.085 0.406,-0.105c0.152,-0.019 0.309,-0.028 0.474,-0.025l0,0.501Zm-29.797,11.341l0.92,0l0,-4.271l1.451,0l0,-0.77l-3.807,0l0,0.77l1.436,0l0,4.271Zm5.437,-1.563c0.008,-0.042 0.015,-0.095 0.021,-0.162c0.005,-0.065 0.009,-0.142 0.009,-0.227c0,-0.163 -0.016,-0.326 -0.05,-0.492c-0.034,-0.167 -0.088,-0.326 -0.162,-0.478c-0.075,-0.152 -0.173,-0.29 -0.295,-0.409c-0.123,-0.121 -0.271,-0.217 -0.447,-0.287c-0.175,-0.069 -0.381,-0.106 -0.617,-0.107c-0.233,0.001 -0.445,0.036 -0.633,0.107c-0.188,0.07 -0.354,0.167 -0.497,0.292c-0.144,0.124 -0.263,0.269 -0.359,0.435c-0.096,0.164 -0.168,0.343 -0.217,0.533c-0.049,0.192 -0.074,0.389 -0.074,0.592c0.002,0.375 0.076,0.699 0.225,0.973c0.148,0.274 0.361,0.487 0.641,0.638c0.279,0.151 0.616,0.227 1.012,0.229c0.263,-0.001 0.501,-0.023 0.714,-0.066c0.214,-0.042 0.4,-0.097 0.557,-0.166l-0.134,-0.628c-0.094,0.033 -0.193,0.061 -0.294,0.086c-0.102,0.025 -0.21,0.044 -0.329,0.058c-0.117,0.013 -0.245,0.021 -0.387,0.021c-0.149,0 -0.29,-0.018 -0.422,-0.055c-0.132,-0.036 -0.249,-0.094 -0.352,-0.169c-0.104,-0.077 -0.185,-0.175 -0.246,-0.294c-0.061,-0.119 -0.096,-0.26 -0.102,-0.424l2.438,0Zm-2.438,-0.644c0.009,-0.095 0.031,-0.194 0.067,-0.296c0.037,-0.104 0.089,-0.2 0.156,-0.29c0.067,-0.088 0.153,-0.162 0.256,-0.218c0.102,-0.056 0.224,-0.085 0.366,-0.086c0.152,0.001 0.278,0.033 0.378,0.091c0.1,0.06 0.177,0.136 0.233,0.228c0.056,0.093 0.094,0.188 0.116,0.29c0.022,0.102 0.031,0.195 0.029,0.281l-1.601,0Zm5.759,1.414c-0.09,0.039 -0.193,0.072 -0.313,0.099c-0.118,0.028 -0.257,0.042 -0.413,0.043c-0.158,0 -0.304,-0.026 -0.438,-0.079c-0.136,-0.051 -0.253,-0.127 -0.354,-0.228c-0.101,-0.1 -0.18,-0.223 -0.236,-0.369c-0.056,-0.144 -0.085,-0.311 -0.086,-0.498c-0.001,-0.167 0.022,-0.323 0.072,-0.465c0.05,-0.144 0.123,-0.268 0.218,-0.375c0.096,-0.108 0.214,-0.191 0.352,-0.251c0.14,-0.06 0.297,-0.09 0.472,-0.091c0.164,0.001 0.302,0.015 0.416,0.042c0.113,0.028 0.206,0.061 0.28,0.1l0.164,-0.696c-0.07,-0.03 -0.153,-0.057 -0.249,-0.082c-0.094,-0.025 -0.197,-0.044 -0.306,-0.06c-0.11,-0.015 -0.221,-0.022 -0.334,-0.022c-0.321,0.001 -0.606,0.051 -0.857,0.149c-0.25,0.098 -0.462,0.235 -0.637,0.41c-0.173,0.175 -0.305,0.381 -0.396,0.615c-0.091,0.235 -0.136,0.489 -0.137,0.763c0.001,0.283 0.045,0.539 0.133,0.768c0.089,0.228 0.214,0.424 0.379,0.587c0.164,0.163 0.361,0.288 0.592,0.375c0.231,0.088 0.487,0.131 0.773,0.132c0.153,-0.001 0.295,-0.01 0.427,-0.028c0.132,-0.019 0.25,-0.041 0.352,-0.07c0.103,-0.029 0.187,-0.059 0.253,-0.089l-0.127,-0.68Zm0.808,0.793l0.919,0l0,-2.184c0,-0.049 0.003,-0.098 0.008,-0.145c0.005,-0.046 0.015,-0.091 0.03,-0.132c0.035,-0.093 0.086,-0.18 0.153,-0.257c0.066,-0.077 0.147,-0.14 0.242,-0.187c0.096,-0.047 0.203,-0.071 0.323,-0.072c0.168,0.001 0.305,0.042 0.409,0.123c0.103,0.081 0.178,0.192 0.225,0.331c0.047,0.139 0.07,0.296 0.069,0.473l0,2.05l0.92,0l0,-2.147c-0.001,-0.29 -0.039,-0.537 -0.111,-0.739c-0.072,-0.202 -0.17,-0.364 -0.292,-0.487c-0.122,-0.124 -0.258,-0.214 -0.407,-0.27c-0.151,-0.056 -0.305,-0.083 -0.462,-0.082c-0.116,0 -0.228,0.015 -0.334,0.042c-0.107,0.029 -0.208,0.07 -0.301,0.122c-0.094,0.049 -0.18,0.109 -0.257,0.178c-0.076,0.069 -0.143,0.148 -0.2,0.234l-0.015,0l0,-2.169l-0.919,0l0,5.318Zm4.278,0l0.92,0l0,-2.147c0,-0.053 0.003,-0.106 0.011,-0.157c0.007,-0.051 0.019,-0.096 0.033,-0.135c0.033,-0.093 0.083,-0.182 0.149,-0.263c0.066,-0.081 0.146,-0.147 0.242,-0.197c0.096,-0.051 0.205,-0.077 0.327,-0.078c0.168,0.001 0.301,0.042 0.403,0.122c0.104,0.08 0.177,0.188 0.225,0.327c0.046,0.138 0.069,0.295 0.068,0.471l0,2.057l0.92,0l0,-2.162c-0.001,-0.286 -0.04,-0.531 -0.112,-0.73c-0.074,-0.2 -0.172,-0.361 -0.297,-0.484c-0.123,-0.122 -0.262,-0.211 -0.415,-0.267c-0.152,-0.056 -0.309,-0.083 -0.47,-0.082c-0.151,0.001 -0.289,0.02 -0.415,0.058c-0.125,0.038 -0.236,0.088 -0.334,0.149c-0.097,0.062 -0.181,0.13 -0.251,0.203c-0.069,0.074 -0.126,0.146 -0.167,0.218l-0.022,0l-0.045,-0.546l-0.8,0c0.007,0.156 0.015,0.324 0.021,0.503c0.005,0.179 0.009,0.372 0.009,0.582l0,2.558Zm5.198,0l0,-3.643l-0.92,0l0,3.643l0.92,0Zm-0.457,-5.161c-0.103,0.001 -0.193,0.024 -0.27,0.066c-0.076,0.044 -0.137,0.104 -0.179,0.178c-0.044,0.076 -0.065,0.161 -0.067,0.257c0.002,0.091 0.023,0.173 0.064,0.248c0.042,0.074 0.101,0.133 0.177,0.177c0.076,0.045 0.166,0.067 0.268,0.069c0.107,-0.002 0.201,-0.024 0.279,-0.069c0.077,-0.044 0.137,-0.103 0.18,-0.177c0.042,-0.075 0.064,-0.157 0.064,-0.248c-0.002,-0.096 -0.025,-0.181 -0.067,-0.257c-0.042,-0.074 -0.101,-0.134 -0.177,-0.178c-0.076,-0.042 -0.167,-0.065 -0.272,-0.066Zm4.002,4.368c-0.09,0.039 -0.193,0.072 -0.313,0.099c-0.119,0.028 -0.257,0.042 -0.413,0.043c-0.158,0 -0.304,-0.026 -0.438,-0.079c-0.136,-0.051 -0.253,-0.127 -0.354,-0.228c-0.101,-0.1 -0.18,-0.223 -0.236,-0.369c-0.056,-0.144 -0.085,-0.311 -0.086,-0.498c-0.001,-0.167 0.023,-0.323 0.072,-0.465c0.05,-0.144 0.122,-0.268 0.218,-0.375c0.096,-0.108 0.214,-0.191 0.352,-0.251c0.14,-0.06 0.297,-0.09 0.472,-0.091c0.164,0.001 0.302,0.015 0.415,0.042c0.114,0.028 0.207,0.061 0.281,0.1l0.165,-0.696c-0.072,-0.03 -0.154,-0.057 -0.25,-0.082c-0.095,-0.025 -0.197,-0.044 -0.307,-0.06c-0.109,-0.015 -0.22,-0.022 -0.334,-0.022c-0.32,0.001 -0.605,0.051 -0.856,0.149c-0.251,0.098 -0.463,0.235 -0.637,0.41c-0.173,0.175 -0.305,0.381 -0.396,0.615c-0.091,0.235 -0.136,0.489 -0.137,0.763c0.001,0.283 0.044,0.539 0.133,0.768c0.088,0.228 0.214,0.424 0.379,0.587c0.165,0.163 0.361,0.288 0.592,0.375c0.231,0.088 0.487,0.131 0.773,0.132c0.153,-0.001 0.295,-0.01 0.428,-0.028c0.132,-0.019 0.249,-0.041 0.351,-0.07c0.103,-0.029 0.187,-0.059 0.253,-0.089l-0.127,-0.68Zm0.464,0.793l3.066,0l0,-0.734l-1.915,0l0,-0.014c0.094,-0.097 0.184,-0.198 0.272,-0.302c0.089,-0.105 0.177,-0.211 0.267,-0.319l1.331,-1.713l0,-0.561l-2.887,0l0,0.733l1.765,0l0,0.015c-0.092,0.104 -0.18,0.203 -0.265,0.301c-0.085,0.098 -0.173,0.202 -0.266,0.312l-1.368,1.751l0,0.531Zm3.709,0l0.92,0l0,-2.147c0,-0.053 0.004,-0.106 0.011,-0.157c0.008,-0.051 0.019,-0.096 0.034,-0.135c0.033,-0.093 0.082,-0.182 0.148,-0.263c0.067,-0.081 0.146,-0.147 0.242,-0.197c0.096,-0.051 0.206,-0.077 0.328,-0.078c0.167,0.001 0.3,0.042 0.403,0.122c0.103,0.08 0.177,0.188 0.224,0.327c0.046,0.138 0.07,0.295 0.069,0.471l0,2.057l0.92,0l0,-2.162c-0.002,-0.286 -0.04,-0.531 -0.113,-0.73c-0.073,-0.2 -0.172,-0.361 -0.296,-0.484c-0.124,-0.122 -0.262,-0.211 -0.415,-0.267c-0.153,-0.056 -0.31,-0.083 -0.47,-0.082c-0.151,0.001 -0.289,0.02 -0.415,0.058c-0.125,0.038 -0.236,0.088 -0.335,0.149c-0.097,0.062 -0.18,0.13 -0.25,0.203c-0.07,0.074 -0.126,0.146 -0.167,0.218l-0.022,0l-0.046,-0.546l-0.8,0c0.008,0.156 0.015,0.324 0.022,0.503c0.005,0.179 0.008,0.372 0.008,0.582l0,2.558Zm5.931,-3.725c-0.275,0.001 -0.528,0.045 -0.758,0.133c-0.229,0.089 -0.429,0.216 -0.597,0.383c-0.168,0.167 -0.298,0.369 -0.39,0.607c-0.092,0.238 -0.138,0.506 -0.14,0.807c0.002,0.294 0.049,0.557 0.141,0.789c0.092,0.231 0.222,0.427 0.388,0.589c0.166,0.162 0.359,0.286 0.578,0.37c0.221,0.085 0.46,0.128 0.718,0.129c0.188,0 0.371,-0.024 0.551,-0.074c0.18,-0.048 0.349,-0.122 0.508,-0.223c0.159,-0.1 0.299,-0.227 0.42,-0.38c0.122,-0.153 0.217,-0.335 0.285,-0.545c0.07,-0.209 0.105,-0.447 0.106,-0.715c-0.001,-0.278 -0.045,-0.531 -0.129,-0.759c-0.087,-0.228 -0.21,-0.425 -0.369,-0.591c-0.16,-0.166 -0.349,-0.293 -0.571,-0.384c-0.222,-0.09 -0.469,-0.135 -0.741,-0.136Zm-0.022,0.666c0.157,0.001 0.292,0.038 0.402,0.11c0.113,0.074 0.204,0.17 0.275,0.29c0.071,0.12 0.123,0.252 0.155,0.395c0.034,0.143 0.05,0.287 0.05,0.431c-0.001,0.248 -0.038,0.466 -0.114,0.653c-0.075,0.187 -0.179,0.332 -0.312,0.437c-0.133,0.104 -0.288,0.158 -0.464,0.159c-0.138,-0.001 -0.264,-0.032 -0.375,-0.093c-0.111,-0.063 -0.206,-0.149 -0.285,-0.259c-0.079,-0.113 -0.139,-0.242 -0.181,-0.392c-0.042,-0.15 -0.064,-0.313 -0.064,-0.49c0,-0.153 0.017,-0.303 0.051,-0.45c0.035,-0.146 0.089,-0.279 0.161,-0.397c0.074,-0.12 0.168,-0.215 0.283,-0.286c0.116,-0.071 0.256,-0.107 0.418,-0.108Zm2.43,0.747l0,0.636l1.908,0l0,-0.636l-1.908,0Zm2.663,-2.729l0,5.041l0.92,0l0,-2.222l2.131,0l0,2.222l0.92,0l0,-5.041l-0.92,0l0,2.019l-2.131,0l0,-2.019l-0.92,0Zm8.25,1.398l-0.92,0l0,2.199c0,0.054 -0.004,0.105 -0.013,0.153c-0.007,0.05 -0.021,0.094 -0.04,0.131c-0.03,0.081 -0.076,0.16 -0.138,0.235c-0.064,0.074 -0.142,0.136 -0.236,0.184c-0.094,0.049 -0.204,0.074 -0.329,0.075c-0.16,-0.001 -0.291,-0.043 -0.392,-0.123c-0.1,-0.081 -0.174,-0.196 -0.22,-0.344c-0.046,-0.149 -0.069,-0.324 -0.068,-0.528l0,-1.982l-0.92,0l0,2.139c0.001,0.297 0.036,0.546 0.104,0.75c0.069,0.202 0.163,0.366 0.281,0.489c0.118,0.123 0.253,0.211 0.404,0.266c0.15,0.055 0.309,0.082 0.475,0.081c0.164,-0.001 0.31,-0.023 0.439,-0.062c0.128,-0.04 0.24,-0.093 0.336,-0.157c0.096,-0.064 0.176,-0.131 0.242,-0.204c0.066,-0.072 0.118,-0.141 0.157,-0.205l0.022,0l0.045,0.546l0.801,0c-0.008,-0.15 -0.015,-0.315 -0.021,-0.497c-0.006,-0.18 -0.009,-0.379 -0.009,-0.595l0,-2.551Zm0.994,3.643l0.898,0l0,-2.155c0,-0.052 0.004,-0.104 0.011,-0.155c0.008,-0.053 0.019,-0.102 0.034,-0.151c0.03,-0.085 0.076,-0.166 0.136,-0.243c0.061,-0.079 0.136,-0.144 0.224,-0.195c0.088,-0.051 0.191,-0.077 0.305,-0.078c0.143,0.001 0.26,0.038 0.353,0.112c0.092,0.072 0.162,0.174 0.207,0.304c0.046,0.13 0.069,0.281 0.069,0.452l0,2.109l0.897,0l0,-2.184c0,-0.054 0.004,-0.107 0.012,-0.162c0.007,-0.054 0.018,-0.102 0.033,-0.145c0.032,-0.088 0.08,-0.17 0.139,-0.243c0.062,-0.072 0.135,-0.131 0.22,-0.176c0.085,-0.043 0.18,-0.066 0.284,-0.067c0.147,0 0.269,0.038 0.366,0.116c0.095,0.076 0.168,0.185 0.215,0.329c0.046,0.143 0.07,0.317 0.07,0.52l0,2.012l0.897,0l0,-2.147c-0.001,-0.29 -0.036,-0.537 -0.104,-0.739c-0.069,-0.202 -0.161,-0.364 -0.277,-0.487c-0.116,-0.124 -0.246,-0.214 -0.388,-0.27c-0.143,-0.056 -0.292,-0.083 -0.442,-0.082c-0.152,0 -0.29,0.019 -0.41,0.055c-0.122,0.037 -0.235,0.091 -0.338,0.162c-0.082,0.052 -0.161,0.116 -0.235,0.192c-0.074,0.075 -0.143,0.163 -0.207,0.264l-0.014,0c-0.053,-0.136 -0.129,-0.253 -0.226,-0.354c-0.096,-0.101 -0.212,-0.178 -0.344,-0.234c-0.134,-0.057 -0.279,-0.084 -0.44,-0.085c-0.155,0.001 -0.293,0.02 -0.413,0.057c-0.121,0.036 -0.226,0.086 -0.316,0.146c-0.09,0.061 -0.168,0.128 -0.232,0.201c-0.065,0.072 -0.119,0.144 -0.161,0.217l-0.022,0l-0.045,-0.539l-0.786,0c0.008,0.156 0.015,0.324 0.022,0.503c0.005,0.179 0.008,0.372 0.008,0.582l0,2.558Zm9.17,-2.184c0.001,-0.202 -0.023,-0.395 -0.071,-0.579c-0.049,-0.183 -0.13,-0.347 -0.243,-0.492c-0.114,-0.145 -0.269,-0.258 -0.463,-0.342c-0.194,-0.083 -0.436,-0.127 -0.727,-0.128c-0.191,0.001 -0.371,0.016 -0.537,0.047c-0.165,0.03 -0.314,0.069 -0.446,0.117c-0.131,0.049 -0.242,0.101 -0.333,0.158l0.18,0.598c0.083,-0.053 0.178,-0.1 0.284,-0.14c0.106,-0.04 0.218,-0.072 0.336,-0.094c0.119,-0.023 0.238,-0.035 0.359,-0.035c0.16,0.001 0.29,0.023 0.388,0.066c0.099,0.042 0.173,0.096 0.224,0.162c0.051,0.066 0.085,0.134 0.104,0.207c0.017,0.072 0.026,0.139 0.025,0.2l0,0.06c-0.45,-0.002 -0.837,0.048 -1.16,0.151c-0.321,0.102 -0.568,0.257 -0.74,0.461c-0.173,0.205 -0.26,0.46 -0.262,0.764c0,0.14 0.027,0.275 0.076,0.403c0.05,0.13 0.124,0.244 0.222,0.347c0.098,0.103 0.217,0.184 0.359,0.243c0.141,0.059 0.304,0.091 0.488,0.092c0.159,-0.001 0.308,-0.021 0.443,-0.062c0.136,-0.043 0.257,-0.099 0.364,-0.172c0.108,-0.073 0.197,-0.156 0.27,-0.252l0.022,0l0.067,0.404l0.831,0c-0.023,-0.115 -0.038,-0.247 -0.046,-0.399c-0.011,-0.151 -0.014,-0.311 -0.014,-0.477l0,-1.308Zm-0.898,0.905c0,0.033 0,0.067 -0.002,0.101c-0.003,0.033 -0.009,0.067 -0.02,0.101c-0.03,0.088 -0.079,0.17 -0.145,0.247c-0.066,0.074 -0.148,0.135 -0.247,0.181c-0.097,0.048 -0.209,0.071 -0.334,0.073c-0.098,0 -0.187,-0.019 -0.265,-0.056c-0.079,-0.038 -0.141,-0.095 -0.187,-0.172c-0.046,-0.078 -0.07,-0.176 -0.071,-0.296c0.001,-0.137 0.037,-0.252 0.107,-0.341c0.07,-0.089 0.164,-0.16 0.284,-0.21c0.12,-0.05 0.256,-0.085 0.407,-0.105c0.152,-0.018 0.309,-0.027 0.473,-0.024l0,0.501Zm1.87,1.279l0.92,0l0,-2.147c0,-0.053 0.004,-0.106 0.011,-0.157c0.008,-0.051 0.019,-0.096 0.034,-0.135c0.032,-0.093 0.082,-0.182 0.148,-0.263c0.066,-0.081 0.146,-0.147 0.242,-0.197c0.096,-0.051 0.206,-0.077 0.328,-0.078c0.167,0.001 0.3,0.042 0.402,0.122c0.104,0.08 0.177,0.188 0.225,0.327c0.046,0.138 0.07,0.295 0.068,0.471l0,2.057l0.92,0l0,-2.162c-0.001,-0.286 -0.04,-0.531 -0.112,-0.73c-0.073,-0.2 -0.172,-0.361 -0.297,-0.484c-0.123,-0.122 -0.261,-0.211 -0.415,-0.267c-0.152,-0.056 -0.309,-0.083 -0.47,-0.082c-0.15,0.001 -0.289,0.02 -0.415,0.058c-0.124,0.038 -0.235,0.088 -0.334,0.149c-0.097,0.062 -0.18,0.13 -0.25,0.203c-0.07,0.074 -0.126,0.146 -0.167,0.218l-0.023,0l-0.045,-0.546l-0.8,0c0.008,0.156 0.015,0.324 0.021,0.503c0.005,0.179 0.009,0.372 0.009,0.582l0,2.558Z" style="fill:#fff;fill-rule:nonzero;"/><path d="M111.568,22.862l0,-3.643l-0.92,0l0,3.643l0.92,0Zm-0.456,-5.161c-0.104,0.001 -0.194,0.024 -0.271,0.066c-0.076,0.044 -0.137,0.104 -0.179,0.178c-0.044,0.076 -0.065,0.161 -0.066,0.257c0.001,0.091 0.022,0.173 0.063,0.248c0.043,0.074 0.101,0.133 0.177,0.177c0.076,0.045 0.166,0.067 0.268,0.069c0.108,-0.002 0.201,-0.024 0.279,-0.069c0.078,-0.044 0.138,-0.103 0.18,-0.177c0.042,-0.075 0.065,-0.157 0.065,-0.248c-0.003,-0.096 -0.025,-0.181 -0.067,-0.257c-0.043,-0.074 -0.101,-0.134 -0.178,-0.178c-0.075,-0.042 -0.167,-0.065 -0.271,-0.066Zm1.226,4.981c0.136,0.076 0.299,0.137 0.489,0.183c0.189,0.046 0.397,0.07 0.618,0.071c0.322,-0.002 0.594,-0.051 0.813,-0.148c0.219,-0.097 0.387,-0.232 0.499,-0.404c0.112,-0.171 0.169,-0.369 0.169,-0.592c-0.002,-0.267 -0.082,-0.49 -0.239,-0.668c-0.157,-0.178 -0.402,-0.326 -0.733,-0.439c-0.154,-0.056 -0.278,-0.108 -0.372,-0.157c-0.093,-0.048 -0.16,-0.1 -0.201,-0.154c-0.043,-0.055 -0.064,-0.121 -0.063,-0.197c0,-0.076 0.02,-0.142 0.059,-0.201c0.039,-0.059 0.096,-0.105 0.172,-0.137c0.076,-0.034 0.168,-0.051 0.278,-0.051c0.108,0.001 0.21,0.012 0.309,0.033c0.098,0.023 0.187,0.05 0.267,0.081c0.078,0.033 0.143,0.064 0.194,0.095l0.187,-0.643c-0.11,-0.061 -0.249,-0.112 -0.416,-0.153c-0.167,-0.042 -0.353,-0.063 -0.556,-0.064c-0.212,0.001 -0.403,0.03 -0.571,0.087c-0.17,0.057 -0.314,0.137 -0.434,0.24c-0.119,0.103 -0.212,0.223 -0.275,0.361c-0.064,0.137 -0.095,0.287 -0.096,0.449c-0.002,0.144 0.033,0.283 0.102,0.415c0.068,0.131 0.177,0.252 0.324,0.361c0.148,0.11 0.34,0.205 0.576,0.286c0.148,0.053 0.267,0.106 0.355,0.156c0.087,0.049 0.15,0.104 0.188,0.164c0.038,0.059 0.056,0.13 0.055,0.211c0,0.081 -0.02,0.152 -0.061,0.213c-0.041,0.061 -0.105,0.11 -0.192,0.145c-0.086,0.034 -0.196,0.053 -0.33,0.053c-0.111,-0.001 -0.226,-0.015 -0.342,-0.041c-0.117,-0.027 -0.227,-0.061 -0.329,-0.102c-0.102,-0.04 -0.188,-0.082 -0.257,-0.126l-0.187,0.673Zm3.493,-4.143l0,0.68l-0.516,0l0,0.688l0.516,0l0,1.713c0,0.239 0.023,0.444 0.07,0.613c0.047,0.17 0.121,0.307 0.222,0.412c0.087,0.094 0.197,0.167 0.332,0.219c0.134,0.053 0.288,0.079 0.461,0.08c0.143,-0.001 0.273,-0.01 0.389,-0.029c0.116,-0.019 0.208,-0.041 0.276,-0.068l-0.015,-0.696c-0.051,0.015 -0.103,0.025 -0.157,0.03c-0.054,0.005 -0.122,0.008 -0.202,0.008c-0.116,0 -0.209,-0.025 -0.278,-0.075c-0.069,-0.05 -0.119,-0.125 -0.149,-0.225c-0.03,-0.1 -0.045,-0.224 -0.044,-0.374l0,-1.608l0.875,0l0,-0.688l-0.875,0l0,-0.935l-0.905,0.255Zm2.094,0.68l1.339,3.338c0.019,0.044 0.03,0.08 0.036,0.109c0.006,0.029 0.009,0.052 0.009,0.07c0,0.022 -0.004,0.047 -0.012,0.073c-0.008,0.028 -0.022,0.058 -0.04,0.091c-0.066,0.125 -0.144,0.237 -0.235,0.338c-0.091,0.101 -0.182,0.179 -0.274,0.237c-0.094,0.067 -0.186,0.122 -0.277,0.163c-0.089,0.042 -0.174,0.073 -0.254,0.091l0.209,0.77c0.077,-0.01 0.166,-0.031 0.268,-0.063c0.104,-0.034 0.215,-0.082 0.334,-0.147c0.119,-0.065 0.24,-0.15 0.363,-0.253c0.106,-0.092 0.208,-0.203 0.307,-0.332c0.098,-0.13 0.198,-0.285 0.298,-0.467c0.098,-0.183 0.202,-0.4 0.31,-0.654c0.109,-0.251 0.224,-0.547 0.349,-0.885l0.913,-2.479l-0.98,0l-0.569,1.941c-0.024,0.079 -0.048,0.159 -0.072,0.243c-0.022,0.082 -0.045,0.165 -0.065,0.244c-0.021,0.082 -0.04,0.155 -0.057,0.222l-0.022,0c-0.018,-0.067 -0.038,-0.14 -0.061,-0.22c-0.023,-0.081 -0.048,-0.162 -0.073,-0.244c-0.025,-0.083 -0.051,-0.161 -0.076,-0.237l-0.651,-1.949l-1.017,0Zm6.627,2.85c-0.09,0.039 -0.193,0.072 -0.313,0.099c-0.118,0.028 -0.257,0.042 -0.413,0.043c-0.158,0 -0.304,-0.026 -0.438,-0.079c-0.136,-0.051 -0.253,-0.127 -0.354,-0.228c-0.101,-0.1 -0.18,-0.223 -0.236,-0.369c-0.056,-0.144 -0.085,-0.311 -0.086,-0.498c-0.001,-0.167 0.023,-0.323 0.072,-0.465c0.05,-0.144 0.122,-0.268 0.219,-0.375c0.095,-0.108 0.213,-0.191 0.351,-0.251c0.14,-0.06 0.297,-0.09 0.472,-0.091c0.164,0.001 0.302,0.015 0.416,0.042c0.113,0.028 0.207,0.061 0.28,0.1l0.165,-0.696c-0.072,-0.03 -0.154,-0.057 -0.25,-0.082c-0.095,-0.025 -0.197,-0.044 -0.307,-0.06c-0.109,-0.015 -0.22,-0.022 -0.333,-0.022c-0.321,0.001 -0.606,0.051 -0.857,0.149c-0.25,0.098 -0.462,0.235 -0.637,0.41c-0.173,0.175 -0.305,0.381 -0.396,0.615c-0.091,0.235 -0.136,0.489 -0.137,0.763c0.001,0.283 0.045,0.539 0.133,0.768c0.088,0.228 0.215,0.424 0.379,0.587c0.165,0.163 0.361,0.288 0.592,0.375c0.231,0.088 0.487,0.131 0.773,0.132c0.153,-0.001 0.295,-0.01 0.428,-0.028c0.132,-0.019 0.249,-0.041 0.351,-0.07c0.104,-0.029 0.187,-0.059 0.253,-0.089l-0.127,-0.68Zm0.464,0.793l3.066,0l0,-0.734l-1.915,0l0,-0.014c0.094,-0.097 0.184,-0.198 0.272,-0.302c0.089,-0.105 0.177,-0.211 0.267,-0.319l1.331,-1.713l0,-0.561l-2.887,0l0,0.733l1.765,0l0,0.015c-0.092,0.104 -0.18,0.203 -0.265,0.301c-0.085,0.098 -0.173,0.202 -0.266,0.312l-1.368,1.751l0,0.531Zm3.709,0l0.92,0l0,-2.147c0,-0.053 0.004,-0.106 0.012,-0.157c0.007,-0.051 0.018,-0.096 0.033,-0.135c0.033,-0.093 0.083,-0.182 0.149,-0.263c0.066,-0.081 0.145,-0.147 0.241,-0.197c0.096,-0.051 0.206,-0.077 0.328,-0.078c0.167,0.001 0.301,0.042 0.403,0.122c0.103,0.08 0.177,0.188 0.224,0.327c0.046,0.138 0.07,0.295 0.069,0.471l0,2.057l0.92,0l0,-2.162c-0.002,-0.286 -0.04,-0.531 -0.112,-0.73c-0.074,-0.2 -0.172,-0.361 -0.297,-0.484c-0.124,-0.122 -0.262,-0.211 -0.415,-0.267c-0.152,-0.056 -0.309,-0.083 -0.47,-0.082c-0.151,0.001 -0.289,0.02 -0.415,0.058c-0.125,0.038 -0.236,0.088 -0.334,0.149c-0.098,0.062 -0.181,0.13 -0.251,0.203c-0.07,0.074 -0.126,0.146 -0.167,0.218l-0.022,0l-0.045,-0.546l-0.801,0c0.008,0.156 0.015,0.324 0.022,0.503c0.005,0.179 0.008,0.372 0.008,0.582l0,2.558Zm7.105,-2.184c0.002,-0.202 -0.022,-0.395 -0.07,-0.579c-0.049,-0.183 -0.13,-0.347 -0.244,-0.492c-0.113,-0.145 -0.267,-0.258 -0.462,-0.342c-0.195,-0.083 -0.436,-0.127 -0.727,-0.128c-0.192,0.001 -0.371,0.016 -0.537,0.047c-0.166,0.03 -0.314,0.069 -0.446,0.117c-0.131,0.049 -0.242,0.101 -0.333,0.158l0.18,0.598c0.083,-0.053 0.178,-0.1 0.284,-0.14c0.106,-0.04 0.218,-0.072 0.336,-0.094c0.119,-0.023 0.238,-0.035 0.359,-0.035c0.16,0.001 0.289,0.023 0.388,0.066c0.098,0.042 0.173,0.096 0.224,0.162c0.051,0.066 0.085,0.134 0.104,0.207c0.017,0.072 0.026,0.139 0.025,0.2l0,0.06c-0.451,-0.002 -0.837,0.048 -1.159,0.151c-0.322,0.102 -0.569,0.257 -0.741,0.461c-0.173,0.205 -0.261,0.46 -0.262,0.764c0,0.14 0.026,0.275 0.076,0.403c0.05,0.13 0.123,0.244 0.222,0.347c0.097,0.103 0.217,0.184 0.359,0.243c0.141,0.059 0.304,0.091 0.488,0.092c0.159,-0.001 0.307,-0.021 0.443,-0.062c0.136,-0.043 0.257,-0.099 0.364,-0.172c0.107,-0.073 0.197,-0.156 0.269,-0.252l0.023,0l0.067,0.404l0.831,0c-0.023,-0.115 -0.038,-0.247 -0.047,-0.399c-0.01,-0.151 -0.014,-0.311 -0.014,-0.477l0,-1.308Zm-0.897,0.905c0,0.033 0,0.067 -0.003,0.101c-0.002,0.033 -0.008,0.067 -0.019,0.101c-0.03,0.088 -0.079,0.17 -0.145,0.247c-0.066,0.074 -0.148,0.135 -0.247,0.181c-0.097,0.048 -0.209,0.071 -0.334,0.073c-0.098,0 -0.187,-0.019 -0.265,-0.056c-0.079,-0.038 -0.141,-0.095 -0.187,-0.172c-0.046,-0.078 -0.07,-0.176 -0.071,-0.296c0.001,-0.137 0.037,-0.252 0.107,-0.341c0.07,-0.089 0.164,-0.16 0.284,-0.21c0.12,-0.05 0.256,-0.085 0.406,-0.105c0.153,-0.018 0.31,-0.027 0.474,-0.024l0,0.501Zm-87.102,7.698l1.077,3.642l0.86,0l0.464,-1.481c0.052,-0.178 0.1,-0.361 0.147,-0.549c0.044,-0.19 0.088,-0.396 0.129,-0.617l0.015,0c0.028,0.146 0.055,0.284 0.084,0.413c0.028,0.13 0.058,0.256 0.089,0.379c0.033,0.124 0.066,0.248 0.104,0.374l0.434,1.481l0.852,0l1.145,-3.642l-0.905,0l-0.404,1.615c-0.049,0.212 -0.095,0.419 -0.136,0.621c-0.042,0.202 -0.076,0.402 -0.104,0.599l-0.014,0c-0.042,-0.197 -0.087,-0.397 -0.135,-0.599c-0.049,-0.202 -0.101,-0.409 -0.157,-0.621l-0.456,-1.615l-0.748,0l-0.479,1.66c-0.05,0.189 -0.101,0.381 -0.155,0.579c-0.052,0.198 -0.098,0.396 -0.137,0.596l-0.015,0c-0.033,-0.199 -0.071,-0.397 -0.111,-0.594c-0.041,-0.198 -0.083,-0.394 -0.128,-0.588l-0.374,-1.653l-0.942,0Zm7.576,3.627c0.12,0.017 0.274,0.032 0.464,0.045c0.189,0.014 0.411,0.021 0.665,0.023c0.31,0 0.583,-0.018 0.819,-0.053c0.239,-0.035 0.444,-0.086 0.619,-0.154c0.174,-0.069 0.321,-0.155 0.44,-0.257c0.096,-0.082 0.179,-0.176 0.25,-0.282c0.071,-0.105 0.127,-0.222 0.167,-0.349c0.04,-0.128 0.062,-0.267 0.062,-0.416c-0.002,-0.172 -0.029,-0.328 -0.085,-0.465c-0.055,-0.139 -0.13,-0.259 -0.225,-0.364c-0.094,-0.104 -0.203,-0.19 -0.325,-0.26c-0.121,-0.068 -0.248,-0.119 -0.383,-0.153l0,-0.022c0.182,-0.069 0.335,-0.158 0.46,-0.268c0.125,-0.11 0.218,-0.235 0.282,-0.374c0.063,-0.14 0.096,-0.287 0.096,-0.443c0,-0.144 -0.023,-0.278 -0.066,-0.397c-0.044,-0.12 -0.103,-0.227 -0.182,-0.319c-0.079,-0.094 -0.17,-0.171 -0.276,-0.233c-0.111,-0.078 -0.235,-0.14 -0.372,-0.188c-0.136,-0.047 -0.292,-0.081 -0.467,-0.103c-0.174,-0.021 -0.373,-0.031 -0.597,-0.031c-0.176,0 -0.348,0.005 -0.517,0.016c-0.168,0.01 -0.324,0.024 -0.466,0.04c-0.144,0.018 -0.264,0.036 -0.363,0.056l0,4.951Zm0.913,-4.345c0.047,-0.011 0.113,-0.021 0.197,-0.027c0.084,-0.007 0.193,-0.011 0.326,-0.011c0.196,0 0.363,0.024 0.504,0.074c0.141,0.05 0.248,0.126 0.324,0.229c0.076,0.103 0.113,0.233 0.115,0.393c0,0.143 -0.039,0.269 -0.115,0.378c-0.076,0.108 -0.188,0.193 -0.337,0.254c-0.147,0.061 -0.329,0.092 -0.543,0.093l-0.471,0l0,-1.383Zm0,2.049l0.456,0c0.159,0 0.309,0.015 0.449,0.046c0.138,0.031 0.26,0.081 0.365,0.147c0.106,0.068 0.188,0.153 0.247,0.259c0.059,0.104 0.089,0.231 0.091,0.378c-0.002,0.155 -0.033,0.286 -0.093,0.393c-0.06,0.107 -0.142,0.193 -0.246,0.259c-0.105,0.065 -0.225,0.113 -0.358,0.143c-0.135,0.029 -0.276,0.043 -0.425,0.043c-0.105,0 -0.197,0 -0.277,-0.002c-0.08,-0.003 -0.15,-0.009 -0.209,-0.02l0,-1.646Zm4.278,2.311l0,-3.642l-0.92,0l0,3.642l0.92,0Zm-0.457,-5.16c-0.103,0.001 -0.193,0.023 -0.27,0.066c-0.076,0.043 -0.137,0.103 -0.179,0.178c-0.044,0.076 -0.065,0.161 -0.067,0.257c0.002,0.091 0.023,0.173 0.064,0.248c0.042,0.073 0.101,0.133 0.177,0.177c0.076,0.045 0.166,0.067 0.268,0.068c0.107,-0.001 0.201,-0.023 0.279,-0.068c0.077,-0.044 0.137,-0.104 0.18,-0.177c0.042,-0.075 0.064,-0.157 0.064,-0.248c-0.002,-0.096 -0.025,-0.181 -0.067,-0.257c-0.042,-0.075 -0.101,-0.135 -0.177,-0.178c-0.076,-0.043 -0.167,-0.065 -0.272,-0.066Zm4.54,3.597c0.008,-0.041 0.015,-0.095 0.021,-0.161c0.006,-0.066 0.009,-0.142 0.009,-0.228c0,-0.162 -0.016,-0.325 -0.05,-0.491c-0.033,-0.167 -0.088,-0.327 -0.162,-0.479c-0.074,-0.152 -0.173,-0.289 -0.295,-0.408c-0.122,-0.121 -0.271,-0.217 -0.446,-0.287c-0.176,-0.07 -0.382,-0.106 -0.617,-0.107c-0.233,0.001 -0.445,0.036 -0.633,0.107c-0.189,0.07 -0.355,0.167 -0.498,0.291c-0.143,0.125 -0.263,0.27 -0.359,0.436c-0.096,0.164 -0.168,0.342 -0.217,0.533c-0.048,0.192 -0.073,0.389 -0.073,0.592c0.001,0.374 0.076,0.698 0.224,0.973c0.148,0.274 0.362,0.487 0.641,0.638c0.279,0.15 0.617,0.227 1.012,0.229c0.263,-0.001 0.501,-0.024 0.714,-0.066c0.214,-0.042 0.4,-0.097 0.557,-0.166l-0.134,-0.628c-0.094,0.032 -0.192,0.061 -0.293,0.086c-0.102,0.025 -0.211,0.044 -0.329,0.057c-0.118,0.014 -0.246,0.022 -0.388,0.022c-0.149,0 -0.289,-0.018 -0.421,-0.055c-0.132,-0.036 -0.25,-0.094 -0.353,-0.17c-0.104,-0.076 -0.185,-0.175 -0.246,-0.293c-0.061,-0.119 -0.096,-0.261 -0.102,-0.425l2.438,0Zm-2.438,-0.643c0.009,-0.095 0.031,-0.195 0.068,-0.297c0.037,-0.103 0.088,-0.199 0.155,-0.289c0.068,-0.088 0.154,-0.162 0.256,-0.218c0.102,-0.056 0.224,-0.085 0.366,-0.086c0.152,0.001 0.278,0.032 0.378,0.091c0.1,0.06 0.177,0.136 0.233,0.228c0.056,0.092 0.095,0.188 0.116,0.289c0.022,0.102 0.031,0.196 0.029,0.282l-1.601,0Zm3.209,2.206l0.92,0l0,-5.317l-0.92,0l0,5.317Zm1.697,-0.179c0.136,0.076 0.3,0.137 0.489,0.183c0.19,0.046 0.397,0.07 0.618,0.071c0.322,-0.002 0.594,-0.051 0.813,-0.148c0.219,-0.098 0.387,-0.232 0.499,-0.404c0.112,-0.171 0.169,-0.369 0.169,-0.592c-0.002,-0.267 -0.082,-0.49 -0.239,-0.669c-0.157,-0.178 -0.401,-0.325 -0.733,-0.438c-0.153,-0.056 -0.278,-0.109 -0.372,-0.157c-0.093,-0.049 -0.16,-0.1 -0.201,-0.155c-0.043,-0.055 -0.064,-0.121 -0.063,-0.197c0,-0.076 0.02,-0.142 0.059,-0.201c0.038,-0.058 0.096,-0.104 0.172,-0.136c0.076,-0.034 0.168,-0.052 0.278,-0.052c0.108,0.002 0.21,0.013 0.309,0.034c0.098,0.022 0.187,0.05 0.267,0.081c0.078,0.032 0.143,0.064 0.194,0.095l0.187,-0.643c-0.109,-0.061 -0.249,-0.113 -0.416,-0.154c-0.167,-0.041 -0.353,-0.062 -0.556,-0.063c-0.212,0.001 -0.403,0.029 -0.571,0.087c-0.17,0.057 -0.314,0.137 -0.434,0.239c-0.12,0.104 -0.212,0.223 -0.275,0.362c-0.064,0.137 -0.095,0.286 -0.097,0.448c-0.001,0.145 0.034,0.284 0.103,0.416c0.068,0.13 0.177,0.251 0.324,0.361c0.148,0.11 0.34,0.204 0.576,0.285c0.148,0.054 0.267,0.107 0.355,0.156c0.087,0.05 0.15,0.105 0.188,0.165c0.038,0.058 0.056,0.13 0.055,0.21c0,0.081 -0.02,0.153 -0.061,0.214c-0.041,0.061 -0.105,0.109 -0.192,0.144c-0.086,0.035 -0.196,0.054 -0.33,0.054c-0.111,-0.001 -0.226,-0.015 -0.342,-0.041c-0.117,-0.028 -0.226,-0.061 -0.329,-0.102c-0.102,-0.04 -0.188,-0.083 -0.257,-0.126l-0.187,0.673Zm4.264,-5.138l-0.92,0l0,5.317l0.92,0l0,-1.241l0.306,-0.367l1.047,1.608l1.13,0l-1.541,-2.154l1.354,-1.488l-1.107,0l-0.89,1.174c-0.046,0.065 -0.094,0.133 -0.142,0.207c-0.05,0.075 -0.098,0.147 -0.143,0.219l-0.014,0l0,-3.275Zm6.147,1.675l-0.919,0l0,2.199c0,0.053 -0.004,0.105 -0.013,0.153c-0.007,0.05 -0.021,0.094 -0.04,0.131c-0.03,0.081 -0.076,0.16 -0.138,0.234c-0.064,0.075 -0.142,0.136 -0.236,0.185c-0.094,0.048 -0.204,0.073 -0.329,0.075c-0.161,-0.002 -0.292,-0.043 -0.393,-0.124c-0.099,-0.081 -0.173,-0.195 -0.219,-0.344c-0.046,-0.148 -0.07,-0.324 -0.069,-0.527l0,-1.982l-0.919,0l0,2.139c0.001,0.297 0.036,0.546 0.104,0.749c0.069,0.203 0.162,0.367 0.281,0.49c0.118,0.122 0.253,0.211 0.404,0.266c0.15,0.054 0.309,0.082 0.475,0.081c0.164,-0.002 0.31,-0.023 0.438,-0.063c0.129,-0.04 0.241,-0.092 0.337,-0.157c0.096,-0.063 0.176,-0.131 0.242,-0.203c0.066,-0.072 0.118,-0.141 0.157,-0.206l0.022,0l0.045,0.546l0.8,0c-0.007,-0.149 -0.015,-0.314 -0.019,-0.496c-0.007,-0.181 -0.011,-0.379 -0.011,-0.596l0,-2.55Zm0.726,1.331l0,0.636l1.907,0l0,-0.636l-1.907,0Zm2.663,2.296c0.119,0.017 0.274,0.032 0.463,0.045c0.19,0.014 0.412,0.021 0.666,0.023c0.309,0 0.582,-0.018 0.819,-0.053c0.238,-0.035 0.443,-0.086 0.618,-0.154c0.175,-0.069 0.322,-0.155 0.44,-0.257c0.096,-0.082 0.18,-0.176 0.251,-0.282c0.071,-0.105 0.127,-0.222 0.167,-0.349c0.04,-0.128 0.061,-0.267 0.061,-0.416c-0.001,-0.172 -0.029,-0.328 -0.085,-0.465c-0.055,-0.139 -0.129,-0.259 -0.224,-0.364c-0.095,-0.104 -0.203,-0.19 -0.326,-0.26c-0.121,-0.068 -0.248,-0.119 -0.382,-0.153l0,-0.022c0.182,-0.069 0.335,-0.158 0.46,-0.268c0.124,-0.11 0.218,-0.235 0.281,-0.374c0.064,-0.14 0.096,-0.287 0.096,-0.443c0,-0.144 -0.022,-0.278 -0.066,-0.397c-0.043,-0.12 -0.103,-0.227 -0.182,-0.319c-0.078,-0.094 -0.169,-0.171 -0.275,-0.233c-0.111,-0.078 -0.236,-0.14 -0.373,-0.188c-0.136,-0.047 -0.292,-0.081 -0.466,-0.103c-0.175,-0.021 -0.374,-0.031 -0.597,-0.031c-0.176,0 -0.348,0.005 -0.518,0.016c-0.168,0.01 -0.324,0.024 -0.466,0.04c-0.143,0.018 -0.264,0.036 -0.362,0.056l0,4.951Zm0.912,-4.345c0.047,-0.011 0.113,-0.021 0.197,-0.027c0.085,-0.007 0.193,-0.011 0.327,-0.011c0.195,0 0.362,0.024 0.503,0.074c0.141,0.05 0.248,0.126 0.324,0.229c0.076,0.103 0.114,0.233 0.115,0.393c0,0.143 -0.039,0.269 -0.115,0.378c-0.076,0.108 -0.188,0.193 -0.336,0.254c-0.148,0.061 -0.329,0.092 -0.544,0.093l-0.471,0l0,-1.383Zm0,2.049l0.456,0c0.16,0 0.309,0.015 0.449,0.046c0.139,0.031 0.26,0.081 0.365,0.147c0.106,0.068 0.189,0.153 0.247,0.259c0.06,0.104 0.09,0.231 0.091,0.378c-0.001,0.155 -0.032,0.286 -0.092,0.393c-0.06,0.107 -0.142,0.193 -0.247,0.259c-0.105,0.065 -0.224,0.113 -0.358,0.143c-0.135,0.029 -0.275,0.043 -0.425,0.043c-0.105,0 -0.197,0 -0.276,-0.002c-0.08,-0.003 -0.15,-0.009 -0.21,-0.02l0,-1.646Zm4.278,2.311l0,-3.642l-0.92,0l0,3.642l0.92,0Zm-0.456,-5.16c-0.103,0.001 -0.193,0.023 -0.271,0.066c-0.076,0.043 -0.137,0.103 -0.179,0.178c-0.044,0.076 -0.065,0.161 -0.066,0.257c0.001,0.091 0.022,0.173 0.063,0.248c0.043,0.073 0.101,0.133 0.178,0.177c0.075,0.045 0.165,0.067 0.267,0.068c0.108,-0.001 0.201,-0.023 0.28,-0.068c0.077,-0.044 0.137,-0.104 0.179,-0.177c0.043,-0.075 0.065,-0.157 0.065,-0.248c-0.003,-0.096 -0.025,-0.181 -0.067,-0.257c-0.043,-0.075 -0.101,-0.135 -0.177,-0.178c-0.076,-0.043 -0.167,-0.065 -0.272,-0.066Zm4.278,2.976c0.001,-0.202 -0.023,-0.395 -0.071,-0.578c-0.049,-0.183 -0.13,-0.348 -0.243,-0.492c-0.114,-0.145 -0.268,-0.258 -0.463,-0.342c-0.194,-0.084 -0.436,-0.127 -0.726,-0.128c-0.192,0.001 -0.372,0.016 -0.538,0.047c-0.165,0.03 -0.314,0.069 -0.446,0.117c-0.131,0.049 -0.242,0.101 -0.333,0.157l0.18,0.599c0.084,-0.053 0.178,-0.1 0.284,-0.14c0.106,-0.04 0.218,-0.072 0.337,-0.095c0.118,-0.022 0.238,-0.035 0.359,-0.035c0.159,0.002 0.289,0.024 0.387,0.067c0.099,0.042 0.174,0.095 0.225,0.161c0.051,0.066 0.085,0.135 0.103,0.207c0.018,0.073 0.026,0.14 0.025,0.201l0,0.06c-0.45,-0.003 -0.836,0.047 -1.159,0.151c-0.322,0.102 -0.569,0.256 -0.741,0.461c-0.173,0.204 -0.26,0.46 -0.261,0.764c0,0.14 0.026,0.274 0.076,0.403c0.05,0.129 0.123,0.244 0.221,0.346c0.098,0.104 0.217,0.185 0.36,0.243c0.14,0.06 0.303,0.091 0.487,0.093c0.159,-0.002 0.308,-0.022 0.444,-0.063c0.136,-0.042 0.257,-0.098 0.363,-0.172c0.108,-0.072 0.198,-0.156 0.27,-0.252l0.022,0l0.068,0.404l0.83,0c-0.023,-0.114 -0.038,-0.247 -0.046,-0.399c-0.01,-0.151 -0.014,-0.31 -0.014,-0.476l0,-1.309Zm-0.898,0.905c0,0.034 0,0.068 -0.002,0.101c-0.002,0.034 -0.009,0.067 -0.02,0.101c-0.03,0.089 -0.079,0.171 -0.145,0.247c-0.066,0.075 -0.148,0.136 -0.246,0.182c-0.097,0.047 -0.21,0.071 -0.334,0.072c-0.099,0 -0.188,-0.018 -0.266,-0.056c-0.079,-0.037 -0.141,-0.094 -0.187,-0.172c-0.046,-0.077 -0.07,-0.176 -0.071,-0.295c0.001,-0.137 0.037,-0.252 0.107,-0.342c0.07,-0.088 0.165,-0.159 0.284,-0.209c0.12,-0.05 0.256,-0.085 0.407,-0.105c0.152,-0.019 0.309,-0.027 0.473,-0.025l0,0.501Zm2.835,1.279l0,-2.602l0.531,-0.434l0,-0.688l-0.531,0.441l0,-2.034l-0.92,0l0,2.722l-0.493,0.411l0,0.681l0.493,-0.411l0,1.914l0.92,0Zm4.121,-1.563c0.008,-0.041 0.015,-0.095 0.021,-0.161c0.005,-0.066 0.009,-0.142 0.009,-0.228c0,-0.162 -0.016,-0.325 -0.05,-0.491c-0.034,-0.167 -0.088,-0.327 -0.162,-0.479c-0.075,-0.152 -0.173,-0.289 -0.295,-0.408c-0.123,-0.121 -0.271,-0.217 -0.447,-0.287c-0.175,-0.07 -0.381,-0.106 -0.617,-0.107c-0.233,0.001 -0.445,0.036 -0.633,0.107c-0.188,0.07 -0.354,0.167 -0.497,0.291c-0.144,0.125 -0.263,0.27 -0.359,0.436c-0.096,0.164 -0.169,0.342 -0.217,0.533c-0.049,0.192 -0.074,0.389 -0.074,0.592c0.002,0.374 0.076,0.698 0.225,0.973c0.148,0.274 0.361,0.487 0.641,0.638c0.279,0.15 0.616,0.227 1.012,0.229c0.263,-0.001 0.501,-0.024 0.714,-0.066c0.214,-0.042 0.4,-0.097 0.557,-0.166l-0.134,-0.628c-0.094,0.032 -0.193,0.061 -0.294,0.086c-0.102,0.025 -0.21,0.044 -0.329,0.057c-0.117,0.014 -0.245,0.022 -0.387,0.022c-0.149,0 -0.29,-0.018 -0.422,-0.055c-0.132,-0.036 -0.249,-0.094 -0.352,-0.17c-0.104,-0.076 -0.185,-0.175 -0.246,-0.293c-0.061,-0.119 -0.096,-0.261 -0.102,-0.425l2.438,0Zm-2.438,-0.643c0.009,-0.095 0.031,-0.195 0.067,-0.297c0.038,-0.103 0.089,-0.199 0.156,-0.289c0.067,-0.088 0.153,-0.162 0.256,-0.218c0.102,-0.056 0.224,-0.085 0.366,-0.086c0.152,0.001 0.278,0.032 0.378,0.091c0.1,0.06 0.177,0.136 0.233,0.228c0.056,0.092 0.094,0.188 0.116,0.289c0.022,0.102 0.031,0.196 0.028,0.282l-1.6,0Zm2.49,3.799c0.154,0 0.309,-0.015 0.465,-0.043c0.156,-0.03 0.304,-0.076 0.444,-0.14c0.141,-0.062 0.264,-0.143 0.37,-0.243c0.11,-0.108 0.2,-0.236 0.271,-0.381c0.071,-0.146 0.123,-0.316 0.157,-0.509c0.034,-0.193 0.051,-0.415 0.051,-0.666l0,-3.253l-0.92,0l0,2.992c0,0.197 -0.004,0.365 -0.014,0.506c-0.008,0.139 -0.022,0.258 -0.041,0.352c-0.019,0.097 -0.043,0.176 -0.074,0.241c-0.031,0.064 -0.068,0.118 -0.11,0.165c-0.075,0.078 -0.171,0.138 -0.288,0.182c-0.116,0.042 -0.25,0.068 -0.4,0.079l0.089,0.718Zm1.309,-6.753c-0.104,0.001 -0.197,0.023 -0.275,0.066c-0.079,0.043 -0.139,0.103 -0.182,0.178c-0.044,0.076 -0.065,0.161 -0.066,0.257c0,0.091 0.021,0.173 0.062,0.248c0.041,0.073 0.099,0.133 0.175,0.177c0.076,0.045 0.167,0.067 0.271,0.068c0.11,-0.001 0.205,-0.023 0.282,-0.068c0.078,-0.044 0.138,-0.104 0.179,-0.177c0.042,-0.075 0.063,-0.157 0.063,-0.248c-0.003,-0.096 -0.025,-0.181 -0.067,-0.257c-0.042,-0.075 -0.1,-0.135 -0.175,-0.178c-0.075,-0.043 -0.164,-0.065 -0.267,-0.066" style="fill:#fff;fill-rule:nonzero;"/><rect x="0.559" y="0.571" width="40.858" height="40.858" style="fill:none;stroke:#fff;stroke-width:1.11px;"/><path d="M35.809,20.768l0,5.148l-5.554,0l0,-5.148l-2.856,0l0,14.003l2.856,0l0,-6.258l5.554,0l0,6.258l2.856,0l0,-14.003l-2.856,0Z" style="fill:#fff;fill-rule:nonzero;"/><path d="M26.042,25.965l-9.747,0l0,2.599l3.392,0l0,10.432l2.953,0l0,-10.432l3.402,0l0,-2.599Z" style="fill:#fff;fill-rule:nonzero;"/><path d="M14.766,27.754c1.025,-4.801 3.329,-8.841 6.54,-12.321c-4.611,-4.516 -10.925,-6.154 -17.89,-6.154c-0.82,0 -1.634,0.039 -2.432,0.114c0.782,-0.069 2.097,-0.279 2.899,-0.335c4.229,-0.297 9.11,-0.056 12.679,1.691c4.122,-3.492 8.133,-5.716 13.959,-5.716c3.924,0 7.628,0.956 10.884,2.648c0.067,0.035 0.064,1.6 -0.005,1.562l-0.284,0.036c-12.176,0 -23.798,7.077 -26.35,18.475Zm7.498,-13.308c0,0 6.371,-5.799 16.54,-6.445c-2.559,-1.027 -5.356,-1.591 -8.283,-1.591c-5.285,0 -10.139,1.264 -13.959,4.339c2.048,0.937 4.004,2.035 5.702,3.697" style="fill:#fff;fill-rule:nonzero;"/><path d="M10.953,17.843l-3.016,0l-5.474,14.05l3.019,0l1.17,-3.319l5.657,0l1.219,3.319l3.072,0l-5.647,-14.05Zm-3.433,8.133l1.903,-5.003l1.961,5.003l-3.864,0Z" style="fill:#fff;fill-rule:nonzero;"/></g></svg>