<?xml version="1.0" encoding="UTF-8" standalone="no"?><!DOCTYPE svg PUBLIC "-//W3C//DTD SVG 1.1//EN" "http://www.w3.org/Graphics/SVG/1.1/DTD/svg11.dtd"><svg width="100%" height="100%" viewBox="0 0 299 247" version="1.1" xmlns="http://www.w3.org/2000/svg" xmlns:xlink="http://www.w3.org/1999/xlink" xml:space="preserve" style="fill-rule:evenodd;clip-rule:evenodd;stroke-linejoin:round;stroke-miterlimit:2;"><g id="layer1"><path id="path18" d="M233.92,150.03c-0.047,-0.001 -0.093,-0.001 -0.14,-0.001c-3.708,0 -6.76,3.051 -6.76,6.76c0,3.708 3.052,6.76 6.76,6.76c3.704,0 6.754,-3.045 6.76,-6.749c0.005,-0.107 0.008,-0.215 0.008,-0.322c0,-3.539 -2.912,-6.45 -6.45,-6.45c-0.059,0 -0.119,0 -0.178,0.002Zm-63,1.18l0,61.72l12.27,0l0,-61.72l-12.27,0Zm114.92,0l0,19l-0.15,0c-2.64,-2.64 -7.64,-4.33 -12.86,-4.33c-15.65,0 -23.07,10.21 -23.07,23.95c0,13.74 7.64,23.81 23,23.81c5.44,0 10.14,-1.54 12.93,-4l0.15,0l0,3.38l12.24,0l0,-61.8l-12.24,-0.01Zm-285.84,2.2l0,59.52l30.6,0c14.26,0 22.78,-6.76 22.78,-18c0,-6.46 -3.31,-11.24 -8.15,-12.93l0,-0.07c3.74,-2.5 5.58,-6.62 5.58,-11.32c0,-9.19 -7,-17.2 -20.79,-17.2l-30.02,0Zm11.28,11.22l18,0c6.69,0 8.82,2.43 8.82,6.18c0,3.38 -1.62,6.39 -8.82,6.39l-18,0l1.17,-1.1l0,-10.34l-1.17,-1.13Zm73.85,1.33c-15.73,0 -24.77,10.36 -24.77,24.25c0,13.15 8.31,23.51 25.43,23.51c7.139,0.21 14.099,-2.293 19.47,-7l-7.42,-7.5c-3.338,2.9 -7.629,4.47 -12.05,4.41c-6.32,0 -10.58,-3.09 -12.35,-7.79l-1.1,-1.17l37,0c0.197,-1.462 0.293,-2.935 0.29,-4.41c0,-13.52 -8,-24.25 -24.46,-24.25l-0.04,-0.05Zm54,0.07c-13.15,0 -20.79,5.88 -20.79,13.89c0,8.45 8.15,11.68 16.09,13.66c1,0.23 7.27,1.92 8.3,2.14c5.37,1.32 6,2.49 6,4c0,1.69 -2.06,3.9 -9.11,3.9c-5.614,-0.084 -10.966,-2.416 -14.85,-6.47l-7.86,7.94c6.298,5.647 14.471,8.763 22.93,8.74c14.33,0 21.23,-6.76 21.23,-14.62c0,-7 -5.07,-11 -14.84,-13.37c-1,-0.3 -6.47,-1.77 -7.42,-2c-5.66,-1.39 -8.16,-2.13 -8.16,-4c0,-1.32 1.62,-3.67 8.53,-3.67c4.868,-0.012 9.558,1.859 13.08,5.22l7.64,-7.58c-5.26,-5.26 -12.1,-7.83 -20.77,-7.83l0,0.05Zm66.43,0.66l-21.68,22.73l22,23.51l15.72,0l-23.15,-23.51l0,-0.15l22.39,-22.64l-15.28,0.06Zm22.19,0l0,46.24l12.27,0l0,-46.3l-12.27,0.06Zm-142.62,9.33c5.87,0 9.62,2.72 11.31,7.57l1.18,1.18l-25.13,0l1.1,-1.18c1.91,-4.7 5.51,-7.57 11.54,-7.57Zm189.06,0.52c8.82,0 12.2,5.14 12.2,13.37c0,8.23 -3.46,13.23 -12.2,13.23c-8.74,0 -12.2,-5 -12.2,-13.23c0,-8.23 3.53,-13.42 12.2,-13.42l0,0.05Zm-262.91,11.09l19.32,0c7.72,0 10.07,3.16 10.07,7.21c0,4.05 -2,7 -10.07,7l-19.32,0l1.17,-1.21l0,-11.87l-1.17,-1.13Zm75.48,35c-1.6,-0.03 -3.189,0.266 -4.67,0.87c-1.31,0.538 -2.478,1.374 -3.41,2.44c-0.949,1.093 -1.664,2.37 -2.1,3.75c-0.489,1.559 -0.728,3.186 -0.71,4.82c-0.019,1.615 0.211,3.224 0.68,4.77c0.406,1.342 1.087,2.585 2,3.65c0.937,1.035 2.101,1.839 3.4,2.35c1.51,0.571 3.116,0.849 4.73,0.82c1.594,0.023 3.177,-0.265 4.66,-0.85c1.288,-0.525 2.441,-1.335 3.37,-2.37l-1.47,-1.47c-0.713,0.892 -1.633,1.595 -2.68,2.05c-1.227,0.519 -2.548,0.774 -3.88,0.75c-1.133,0.013 -2.26,-0.156 -3.34,-0.5c-1.792,-0.578 -3.292,-1.83 -4.18,-3.49c-0.459,-0.838 -0.796,-1.737 -1,-2.67c-0.21,-0.986 -0.314,-1.992 -0.31,-3c-0.008,-1.049 0.1,-2.095 0.32,-3.12c0.2,-0.954 0.536,-1.873 1,-2.73c0.434,-0.824 1.013,-1.562 1.71,-2.18c0.73,-0.635 1.575,-1.124 2.49,-1.44c1.07,-0.356 2.192,-0.532 3.32,-0.52c0.925,-0.005 1.846,0.113 2.74,0.35c0.77,0.214 1.499,0.551 2.16,1c0.619,0.415 1.169,0.924 1.63,1.51l1.53,-1.5c-0.921,-1.042 -2.071,-1.857 -3.36,-2.38c-1.495,-0.59 -3.093,-0.876 -4.7,-0.84l0.07,-0.07Zm121.59,0c-1.6,-0.03 -3.189,0.266 -4.67,0.87c-1.31,0.538 -2.478,1.374 -3.41,2.44c-0.949,1.093 -1.664,2.37 -2.1,3.75c-0.489,1.559 -0.728,3.186 -0.71,4.82c-0.019,1.615 0.211,3.224 0.68,4.77c0.418,1.348 1.117,2.592 2.05,3.65c0.937,1.035 2.101,1.839 3.4,2.35c1.51,0.571 3.116,0.849 4.73,0.82c1.594,0.023 3.177,-0.265 4.66,-0.85c1.288,-0.525 2.441,-1.335 3.37,-2.37l-1.47,-1.47c-0.713,0.892 -1.633,1.595 -2.68,2.05c-1.227,0.519 -2.548,0.774 -3.88,0.75c-1.133,0.013 -2.26,-0.156 -3.34,-0.5c-1.792,-0.578 -3.292,-1.83 -4.18,-3.49c-0.459,-0.838 -0.796,-1.737 -1,-2.67c-0.21,-0.986 -0.314,-1.992 -0.31,-3c-0.008,-1.049 0.1,-2.095 0.32,-3.12c0.2,-0.954 0.536,-1.873 1,-2.73c0.434,-0.824 1.013,-1.562 1.71,-2.18c0.745,-0.663 1.615,-1.17 2.56,-1.49c1.07,-0.356 2.192,-0.532 3.32,-0.52c0.925,-0.005 1.846,0.113 2.74,0.35c0.77,0.214 1.499,0.551 2.16,1c0.619,0.415 1.169,0.924 1.63,1.51l1.53,-1.5c-0.921,-1.042 -2.071,-1.857 -3.36,-2.38c-1.495,-0.59 -3.093,-0.876 -4.7,-0.84l-0.05,-0.02Zm-206.39,0.28l0,22.91l2,0l0,-22.92l-2,0.01Zm5.23,0l0,1.89l8.35,0l-0.14,0.2l0,20.82l2,0l0,-20.83l-0.14,-0.2l8.32,0l0,-1.89l-18.39,0.01Zm55.75,0l-10.07,22.9l2.21,0l2.54,-5.8l-0.05,-0.2l12.51,0l-0.09,0.2l2.58,5.8l2.17,0l-10,-22.91l-1.8,0.01Zm43.22,0l-10.08,22.9l2.18,0l2.54,-5.8l-0.06,-0.2l12.54,0l-0.08,0.2l2.57,5.8l2.18,0l-10,-22.91l-1.79,0.01Zm14.76,0l0,22.91l8.51,0c1.255,0.014 2.506,-0.141 3.72,-0.46c0.968,-0.26 1.882,-0.69 2.7,-1.27c0.712,-0.523 1.328,-1.166 1.82,-1.9c0.475,-0.736 0.849,-1.534 1.11,-2.37c0.268,-0.871 0.452,-1.765 0.55,-2.67c0.1,-0.927 0.15,-1.858 0.15,-2.79c0.002,-0.929 -0.052,-1.857 -0.16,-2.78c-0.099,-0.902 -0.283,-1.793 -0.55,-2.66c-0.261,-0.839 -0.638,-1.636 -1.12,-2.37c-0.497,-0.743 -1.124,-1.39 -1.85,-1.91c-0.826,-0.578 -1.746,-1.008 -2.72,-1.27c-1.227,-0.323 -2.492,-0.478 -3.76,-0.46l-8.4,0Zm22.66,0l0,22.91l16.12,0l0,-1.9l-14.34,0l0.2,-0.19l0,-8.23l-0.2,-0.17l13,0l0,-1.93l-13,0l0.2,-0.17l0,-8.23l-0.2,-0.2l14.34,0l0,-1.89l-16.12,0Zm20.64,0l0,22.91l2,0l0,-18.54l0.06,0l1.56,3.85l7.26,15l0.06,0l7.21,-14.9l1.61,-3.94l0.06,0l0,18.53l2,0l0,-22.92l-1.78,0l-7.89,16.23l-1.19,2.66l-0.1,0l-1.18,-2.63l-7.92,-16.26l-1.76,0.01Zm27,0l0,22.91l2,0l0,-22.92l-2,0.01Zm46.1,0l0,22.91l8.52,0c1.255,0.013 2.506,-0.142 3.72,-0.46c0.964,-0.262 1.875,-0.692 2.69,-1.27c0.717,-0.518 1.334,-1.161 1.82,-1.9c0.483,-0.732 0.857,-1.53 1.11,-2.37c0.268,-0.871 0.452,-1.765 0.55,-2.67c0.2,-1.851 0.2,-3.719 0,-5.57c-0.103,-0.902 -0.29,-1.793 -0.56,-2.66c-0.261,-0.839 -0.638,-1.636 -1.12,-2.37c-0.496,-0.74 -1.119,-1.387 -1.84,-1.91c-0.828,-0.58 -1.753,-1.01 -2.73,-1.27c-1.223,-0.324 -2.485,-0.478 -3.75,-0.46l-8.41,0Zm29.76,0l-10.07,22.91l2.18,0l2.54,-5.8l-0.05,-0.2l12.53,0l-0.09,0.2l2.58,5.8l2.17,0l-10,-22.91l-1.79,0Zm9.81,0l9.19,13.23l0,9.67l2,0l0,-9.67l9.19,-13.24l-2.49,0l-6.16,9l-1.53,2.55l-1.52,-2.55l-6.17,-9l-2.51,0.01Zm-154.2,1.89l6.39,0c1.231,-0.024 2.457,0.155 3.63,0.53c0.902,0.288 1.729,0.773 2.42,1.42c0.615,0.605 1.105,1.325 1.44,2.12c0.345,0.836 0.581,1.713 0.7,2.61c0.132,0.954 0.192,1.917 0.18,2.88c0.01,0.969 -0.047,1.938 -0.17,2.9c-0.117,0.895 -0.346,1.772 -0.68,2.61c-0.666,1.697 -2.069,3.001 -3.81,3.54c-1.165,0.363 -2.38,0.535 -3.6,0.51l-6.45,0l0.2,-0.19l0,-18.7l-0.25,-0.23Zm116.42,0l6.33,0c1.231,-0.024 2.457,0.155 3.63,0.53c0.903,0.286 1.73,0.771 2.42,1.42c0.621,0.602 1.115,1.323 1.45,2.12c0.347,0.835 0.579,1.713 0.69,2.61c0.132,0.954 0.192,1.917 0.18,2.88c0.01,0.969 -0.047,1.938 -0.17,2.9c-0.113,0.896 -0.341,1.773 -0.68,2.61c-0.666,1.697 -2.069,3.001 -3.81,3.54c-1.165,0.363 -2.38,0.535 -3.6,0.51l-6.47,0l0.19,-0.19l0,-18.7l-0.16,-0.23Zm-175.33,0.46l0.06,0l0.62,2.15l4.52,10.32l0.23,0.2l-10.82,0l0.2,-0.17l4.49,-10.36l0.7,-2.14Zm43.22,0l0.62,2.15l4.53,10.32l0.23,0.2l-10.78,0l0.2,-0.17l4.53,-10.35l0.67,-2.15Zm160.93,0l0.05,0l0.63,2.15l4.52,10.32l0.23,0.2l-10.83,0l0.2,-0.17l4.53,-10.35l0.67,-2.15Z" style="fill:#16334f;fill-rule:nonzero;"/><path id="path40" d="M136.23,0l-98.9,104.18c-1.732,-0.68 -3.579,-1.019 -5.44,-1c-7.88,0 -11.8,5 -11.8,11.47c0,6.47 3.92,11.47 11.83,11.47c7.91,0 11.83,-5.05 11.83,-11.47c0.044,-2.199 -0.49,-4.372 -1.55,-6.3l94,-99l47,49.9l-43.19,45.49c-2.033,-1.075 -4.311,-1.606 -6.61,-1.54c-7.88,0 -11.8,5 -11.8,11.47c0,6.47 3.92,11.47 11.83,11.47c7.91,0 11.83,-5.05 11.83,-11.47c0.009,-1.753 -0.331,-3.49 -1,-5.11l71.58,-75.4l36.13,38.39c-1.731,2.189 -2.631,4.921 -2.54,7.71c0,6.45 3.92,11.47 11.83,11.47c7.91,0 11.82,-5 11.82,-11.47c0,-6.47 -3.92,-11.48 -11.86,-11.48c-1.205,-0.007 -2.406,0.127 -3.58,0.4l-41.76,-44.38l-28.27,29.83l-51.38,-54.63Zm125,73.87c4.13,0 5.93,2.58 5.93,6.4c0,3.82 -1.8,6.42 -5.93,6.42c-4.13,0 -5.93,-2.61 -5.93,-6.42c0,-3.81 1.78,-6.4 5.98,-6.4l-0.05,0Zm-229.31,34.42c4.13,0 5.93,2.57 5.93,6.39c0,3.82 -1.8,6.43 -5.93,6.43c-4.13,0 -5.93,-2.62 -5.93,-6.43c0,-3.81 1.77,-6.39 5.93,-6.39Zm101.49,0c4.13,0 5.93,2.57 5.93,6.39c0,3.82 -1.8,6.43 -5.93,6.43c-4.13,0 -5.93,-2.62 -5.93,-6.43c0,-3.81 1.76,-6.39 5.93,-6.39Z" style="fill:#4093cd;fill-rule:nonzero;"/><g><path d="M176.83,138.37l19.25,0c0.028,-0.005 0.057,-0.007 0.085,-0.007c0.297,0 0.54,0.244 0.54,0.54c0,0.026 -0.001,0.052 -0.005,0.077l0,2.57c0.003,0.025 0.005,0.05 0.005,0.075c0,0.302 -0.248,0.55 -0.55,0.55c-0.025,0 -0.05,-0.002 -0.075,-0.005l-24.47,0c-0.025,0.004 -0.051,0.005 -0.077,0.005c-0.296,0 -0.54,-0.243 -0.54,-0.54c0,-0.028 0.002,-0.057 0.007,-0.085l0,-2.57c-0.004,-0.279 0.108,-0.548 0.31,-0.74c1.393,-1.633 4.52,-5.477 9.38,-11.53l4.54,-5.64c3.84,-4.86 5.76,-8.643 5.76,-11.35c0.08,-1.977 -0.728,-3.889 -2.2,-5.21c-1.602,-1.369 -3.664,-2.084 -5.77,-2c-2.067,-0.088 -4.09,0.629 -5.64,2c-1.44,1.352 -2.207,3.278 -2.09,5.25l0,1.9c0.004,0.025 0.005,0.05 0.005,0.075c0,0.297 -0.243,0.54 -0.54,0.54c-0.025,0 -0.05,-0.001 -0.075,-0.005l-3.19,0c-0.025,0.004 -0.05,0.005 -0.075,0.005c-0.297,0 -0.54,-0.243 -0.54,-0.54c0,-0.025 0.001,-0.05 0.005,-0.075l0,-2.43c-0.02,-2.93 1.272,-5.72 3.52,-7.6c2.427,-1.975 5.493,-2.999 8.62,-2.88c2.247,-0.045 4.474,0.438 6.5,1.41c3.661,1.722 5.975,5.455 5.89,9.5c0,3.48 -1.923,7.673 -5.77,12.58c-2,2.567 -5.863,7.307 -11.59,14.22l-1.35,1.6c-0.12,0.2 -0.08,0.31 0.13,0.31Z" style="fill:#16334f;fill-rule:nonzero;"/><path d="M208.08,139.41c-2.371,-2.378 -3.638,-5.645 -3.49,-9l0,-19.4c-0.168,-3.358 1.102,-6.633 3.49,-9c2.327,-2.227 5.457,-3.34 9.39,-3.34c3.933,0 7.1,1.123 9.5,3.37c2.409,2.337 3.705,5.597 3.56,8.95l0,19.38c0.147,3.368 -1.149,6.644 -3.56,9c-2.373,2.253 -5.54,3.377 -9.5,3.37c-3.96,-0.007 -7.09,-1.117 -9.39,-3.33Zm15.7,-2.7c1.626,-1.589 2.499,-3.799 2.4,-6.07l0,-19.81c0.095,-2.244 -0.767,-4.426 -2.37,-6c-1.727,-1.569 -4.01,-2.386 -6.34,-2.27c-2.287,-0.106 -4.523,0.712 -6.2,2.27c-1.582,1.585 -2.428,3.763 -2.33,6l0,19.8c-0.105,2.259 0.74,4.462 2.33,6.07c1.677,1.558 3.913,2.376 6.2,2.27c2.325,0.114 4.603,-0.699 6.33,-2.26l-0.02,0Z" style="fill:#16334f;fill-rule:nonzero;"/><path d="M244.35,138.37l19.25,0c0.028,-0.005 0.057,-0.007 0.085,-0.007c0.297,0 0.54,0.244 0.54,0.54c0,0.026 -0.001,0.052 -0.005,0.077l0,2.57c0.003,0.025 0.005,0.05 0.005,0.075c0,0.302 -0.248,0.55 -0.55,0.55c-0.025,0 -0.05,-0.002 -0.075,-0.005l-24.47,0c-0.022,0.003 -0.043,0.004 -0.065,0.004c-0.302,0 -0.55,-0.248 -0.55,-0.55c0,-0.025 0.002,-0.05 0.005,-0.074l0,-2.57c-0.004,-0.279 0.108,-0.548 0.31,-0.74c1.387,-1.633 4.513,-5.477 9.38,-11.53l4.54,-5.64c3.84,-4.86 5.76,-8.643 5.76,-11.35c0.08,-1.977 -0.728,-3.889 -2.2,-5.21c-1.602,-1.369 -3.664,-2.084 -5.77,-2c-2.067,-0.088 -4.09,0.629 -5.64,2c-1.44,1.352 -2.207,3.278 -2.09,5.25l0,1.9c0.004,0.025 0.005,0.05 0.005,0.075c0,0.297 -0.243,0.54 -0.54,0.54c-0.025,0 -0.05,-0.001 -0.075,-0.005l-3.19,0c-0.025,0.004 -0.05,0.005 -0.075,0.005c-0.297,0 -0.54,-0.243 -0.54,-0.54c0,-0.025 0.001,-0.05 0.005,-0.075l0,-2.43c-0.016,-2.931 1.28,-5.721 3.53,-7.6c2.423,-1.975 5.486,-3 8.61,-2.88c2.247,-0.045 4.474,0.438 6.5,1.41c3.661,1.722 5.975,5.455 5.89,9.5c0,3.48 -1.92,7.673 -5.76,12.58c-2,2.567 -5.867,7.307 -11.6,14.22l-1.35,1.6c-0.14,0.2 -0.08,0.31 0.13,0.31Z" style="fill:#16334f;fill-rule:nonzero;"/><path d="M275.62,139.41c-2.371,-2.378 -3.638,-5.645 -3.49,-9l0,-19.4c-0.168,-3.358 1.102,-6.633 3.49,-9c2.327,-2.227 5.457,-3.34 9.39,-3.34c3.933,0 7.1,1.123 9.5,3.37c2.409,2.337 3.705,5.597 3.56,8.95l0,19.38c0.147,3.368 -1.149,6.644 -3.56,9c-2.373,2.253 -5.54,3.377 -9.5,3.37c-3.96,-0.007 -7.09,-1.117 -9.39,-3.33Zm15.7,-2.7c1.626,-1.589 2.499,-3.799 2.4,-6.07l0,-19.81c0.09,-2.241 -0.767,-4.42 -2.36,-6c-1.731,-1.569 -4.017,-2.386 -6.35,-2.27c-2.287,-0.106 -4.523,0.712 -6.2,2.27c-1.582,1.585 -2.428,3.763 -2.33,6l0,19.8c-0.105,2.259 0.74,4.462 2.33,6.07c1.677,1.558 3.913,2.376 6.2,2.27c2.318,0.108 4.588,-0.704 6.31,-2.26Z" style="fill:#16334f;fill-rule:nonzero;"/></g></g></svg>