<?xml version="1.0" encoding="UTF-8" standalone="no"?><!DOCTYPE svg PUBLIC "-//W3C//DTD SVG 1.1//EN" "http://www.w3.org/Graphics/SVG/1.1/DTD/svg11.dtd"><svg width="100%" height="100%" viewBox="0 0 860 340" version="1.1" xmlns="http://www.w3.org/2000/svg" xmlns:xlink="http://www.w3.org/1999/xlink" xml:space="preserve" xmlns:serif="http://www.serif.com/" style="fill-rule:evenodd;clip-rule:evenodd;stroke-linejoin:round;stroke-miterlimit:2;"><path id="path132" d="M854.588,307.317l4.516,0l0,31.61l-4.516,0l0,-31.61Zm-9.02,0l4.516,0l0,31.61l-4.516,0l0,-31.61Zm-31.625,31.61l-4.511,0l0,-31.61l15.803,15.808l15.806,-15.808l0,31.61l-4.51,0l0,-20.323l-11.296,11.292l-11.292,-11.292l0,20.323Zm-36.126,-13.547l0,9.032l18.068,0c3.011,0 4.516,-1.505 4.516,-4.516c0,-3.011 -1.505,-4.516 -4.516,-4.516l-18.068,0Zm0,-13.541l0,9.03l18.068,0c3.011,0 4.516,-1.509 4.516,-4.52c0,-3.01 -1.505,-4.51 -4.516,-4.51l-18.068,0Zm-4.51,27.088l0,-31.61l22.578,0c6.027,0 9.032,2.636 9.032,7.902c0,5.27 -1.505,7.906 -4.516,7.906c3.011,0 4.516,2.63 4.516,7.902c0,5.27 -3.005,7.9 -9.032,7.9l-22.578,0Zm-9.036,-31.61l4.521,0l0,31.61l-15.813,-15.802l-15.807,15.802l0,-31.61l4.511,0l0,20.323l11.296,-11.291l11.292,11.291l0,-20.323Zm-70.183,0l0,13.552l22.584,0l0,-13.552l4.516,0l0,31.61l-4.516,0l0,-13.547l-22.584,0l0,13.547l-4.515,0l0,-31.61l4.515,0Zm-40.64,0l31.609,0l0,4.522l-13.546,0l0,27.088l-4.516,0l0,-27.088l-13.547,0l0,-4.522Zm-36.136,31.61l31.609,-31.61l0,31.61l-4.509,0l0,-20.323l-20.324,20.323l-6.776,0Zm67.287,-83.104c0,-2.088 -0.25,-3.474 -0.735,-4.172c-0.495,-0.692 -1.843,-1.042 -4.047,-1.042c-1.932,0 -3.218,0.36 -3.822,1.079c-0.61,0.724 -0.922,2.099 -0.922,4.135l9.526,0Zm-0.068,4.776l2.584,0c0,2.469 -0.667,3.964 -1.979,4.494c-1.319,0.527 -3.037,0.787 -5.172,0.787c-3.136,0 -5.172,-0.599 -6.104,-1.796c-0.943,-1.199 -1.407,-3.319 -1.407,-6.355c0,-2.926 0.359,-5.166 1.078,-6.724c0.72,-1.557 2.745,-2.333 6.073,-2.333c3.136,0 5.167,0.521 6.093,1.583c0.918,1.052 1.396,3.13 1.418,6.25l0,1.255l-12.079,0c0,1.871 0.204,3.365 0.6,4.491c0.395,1.124 1.713,1.692 3.968,1.692l1.453,0c0.276,0 0.574,-0.026 0.88,-0.074c0.37,-0.025 0.708,-0.082 1.042,-0.176c0.333,-0.094 0.625,-0.229 0.865,-0.396c0.24,-0.166 0.401,-0.39 0.484,-0.666c0.084,-0.276 0.136,-0.558 0.161,-0.844c0.027,-0.094 0.042,-0.203 0.042,-0.323l0,-0.324l0,-0.541Zm-36.01,-11.678l2.334,0l0,2.158c0.65,-1.032 1.478,-1.71 2.489,-2.032c0.989,-0.323 2.077,-0.484 3.229,-0.484c2.276,0 3.87,0.437 4.771,1.312c0.916,0.876 1.369,2.448 1.369,4.724l0,11.098l-2.546,0l0,-10.905c0,-1.688 -0.266,-2.797 -0.792,-3.355c-0.526,-0.552 -1.64,-0.828 -3.339,-0.828c-1.609,0 -2.839,0.37 -3.703,1.115c-0.864,0.745 -1.292,1.969 -1.292,3.677l0,10.296l-2.52,0l0,-16.776Zm-21.849,0l12.109,0l0,2.344l-10.026,12.391l10.026,0l0,2.041l-12.937,0l0,-2.328l9.995,-12.468l-9.167,0l0,-1.98Zm-12.469,10.672l2.48,0c0,2.584 -0.538,4.276 -1.615,5.068c-1.079,0.792 -2.891,1.188 -5.423,1.188c-3.546,0 -5.676,-0.724 -6.385,-2.177c-0.708,-1.443 -1.057,-3.745 -1.057,-6.88c0,-2.855 0.485,-4.907 1.469,-6.167c0.984,-1.256 2.964,-1.885 5.932,-1.885c1.844,0 3.437,0.301 4.776,0.896c1.344,0.604 2.011,2.015 2.011,4.244l0,0.251c-0.022,0.052 -0.027,0.093 -0.027,0.145l0,0.141l-2.443,0c0,-1.51 -0.312,-2.485 -0.916,-2.944c-0.614,-0.452 -1.645,-0.681 -3.109,-0.681c-2.229,0 -3.636,0.348 -4.208,1.052c-0.573,0.703 -0.865,2.244 -0.865,4.629l0,1.678c0,1.885 0.224,3.297 0.65,4.234c0.439,0.943 1.74,1.412 3.918,1.412c1.864,0 3.136,-0.218 3.812,-0.666c0.661,-0.443 1,-1.62 1,-3.538m-20.266,-10.672l-4.744,17.756c-0.053,0.14 -0.084,0.296 -0.125,0.463c-0.032,0.167 -0.084,0.333 -0.125,0.505c-0.407,1.412 -1,2.704 -1.782,3.86c-0.776,1.162 -2.005,1.746 -3.682,1.746c-0.192,0 -0.386,-0.022 -0.594,-0.058c-0.197,-0.032 -0.401,-0.073 -0.593,-0.125l0,-2.011c0.077,0 0.151,0.006 0.244,0.016c0.073,0.011 0.157,0.02 0.224,0.02c0.068,0.022 0.152,0.038 0.235,0.038l0.234,0c0.864,0 1.516,-0.344 1.959,-1.027c0.448,-0.683 0.781,-1.427 0.984,-2.249c0.12,-0.402 0.229,-0.792 0.312,-1.162c0.079,-0.376 0.156,-0.709 0.224,-0.996l-0.885,0l-6.083,-16.776l2.552,0l5.249,14.948l3.814,-14.948l2.582,0Zm-23.177,0.038l0,1.973l-6.468,0l0,10.313c0,0.963 0.145,1.635 0.427,2.036c0.292,0.391 0.937,0.588 1.942,0.588c1.126,0 1.803,-0.27 2.032,-0.822c0.224,-0.552 0.343,-1.276 0.343,-2.156l0,-1.12l2.376,0c0,1.756 -0.272,3.213 -0.797,4.385c-0.527,1.177 -1.855,1.761 -3.99,1.761c-1.865,0 -3.152,-0.333 -3.844,-1c-0.697,-0.677 -1.036,-1.901 -1.036,-3.672l0,-10.313l-2.198,0l0,-1.973l2.198,0l0,-4.063l2.547,0l0,4.063l6.468,0Zm-31.801,11.421c0,1.469 0.296,2.427 0.896,2.901c0.593,0.464 1.582,0.698 2.968,0.698l0.75,0c0.266,0 0.52,-0.01 0.787,-0.036c1.004,-0.047 1.921,-0.271 2.76,-0.662c0.833,-0.401 1.255,-1.218 1.255,-2.464c0,-1.51 -0.454,-2.432 -1.364,-2.765c-0.902,-0.339 -1.99,-0.505 -3.256,-0.505l-0.61,0l-0.681,0c-0.24,0 -0.475,0.016 -0.713,0.032c-0.407,0.052 -0.814,0.129 -1.199,0.233c-0.396,0.109 -0.724,0.287 -0.984,0.527c-0.193,0.14 -0.333,0.333 -0.412,0.573c-0.083,0.239 -0.14,0.495 -0.167,0.749c-0.02,0.126 -0.03,0.246 -0.03,0.36l0,0.359Zm0.541,-6.609l-2.593,0c0,-2.323 0.634,-3.719 1.905,-4.183c1.272,-0.473 2.855,-0.703 4.745,-0.703c2.323,0 4.11,0.323 5.37,0.97c1.261,0.65 1.89,2.29 1.89,4.921l0,10.921l-2.338,0l0.105,-1.718c-0.72,0.906 -1.563,1.469 -2.532,1.666c-0.964,0.21 -2.005,0.308 -3.104,0.308c-2.068,0 -3.683,-0.308 -4.849,-0.917c-1.178,-0.615 -1.766,-2.063 -1.766,-4.369c0,-2.224 0.615,-3.626 1.855,-4.198c1.233,-0.578 2.796,-0.865 4.687,-0.865c0.261,0 0.537,0.005 0.828,0.016c0.281,0.016 0.573,0.031 0.865,0.057c0.427,0.026 0.853,0.078 1.271,0.162c0.421,0.082 0.822,0.197 1.202,0.344c0.266,0.093 0.49,0.244 0.688,0.448c0.192,0.202 0.355,0.437 0.5,0.702l0,-2.016c0,-2.062 -0.292,-3.344 -0.865,-3.844c-0.572,-0.504 -1.891,-0.754 -3.952,-0.754c-0.193,0 -0.423,0.005 -0.683,0.016c-0.265,0.016 -0.516,0.03 -0.75,0.057c-0.364,0.02 -0.703,0.077 -1.01,0.177c-0.313,0.094 -0.573,0.228 -0.792,0.395c-0.234,0.167 -0.412,0.381 -0.5,0.631c-0.098,0.25 -0.156,0.521 -0.177,0.808c-0.027,0.072 -0.041,0.145 -0.041,0.233l0,0.464c0,0.088 0.01,0.177 0.041,0.271m-37.88,-4.85l2.407,0l0,2.516c0.552,-1.052 1.333,-1.776 2.337,-2.172c1.005,-0.401 2.063,-0.593 3.163,-0.593c0.192,0 0.38,0.005 0.557,0.021c0.181,0.004 0.364,0.01 0.556,0.01c0.912,0.1 1.767,0.344 2.568,0.734c0.803,0.402 1.365,1.063 1.672,2c0.625,-1.052 1.437,-1.786 2.443,-2.192c1.01,-0.412 2.098,-0.609 3.27,-0.609c2.204,0 3.767,0.452 4.688,1.359c0.927,0.912 1.386,2.458 1.386,4.636l0,11.066l-2.626,0l0,-11.306c0,-1.443 -0.254,-2.418 -0.77,-2.932c-0.516,-0.522 -1.506,-0.782 -2.964,-0.782c-0.239,0 -0.5,0.016 -0.771,0.036c-0.276,0.032 -0.557,0.063 -0.843,0.115c-0.6,0.093 -1.177,0.281 -1.729,0.552c-0.547,0.281 -0.948,0.693 -1.183,1.245c-0.145,0.312 -0.24,0.646 -0.292,1.006c-0.046,0.364 -0.077,0.713 -0.104,1.052l0,11.014l-2.552,0l0,-11.093c-0.073,-1.557 -0.338,-2.593 -0.792,-3.109c-0.453,-0.516 -1.494,-0.782 -3.124,-0.782c-1.87,0 -3.152,0.459 -3.844,1.375c-0.698,0.912 -1.042,2.229 -1.042,3.964l0,9.645l-2.411,0l0,-16.776Zm-20.552,0l2.443,0l-0.11,1.943c0.5,-0.828 1.156,-1.421 1.959,-1.771c0.801,-0.353 1.681,-0.53 2.64,-0.53c1.697,0 2.943,0.401 3.719,1.202c0.781,0.803 1.166,2.038 1.166,3.719l0,0.485c0,0.162 -0.01,0.334 -0.03,0.52l-2.443,0c0.02,-0.186 0.031,-0.396 0.031,-0.609l0,-0.645c0,-1.032 -0.246,-1.73 -0.735,-2.084c-0.489,-0.359 -1.229,-0.542 -2.213,-0.542c-1.292,0 -2.266,0.323 -2.927,0.97c-0.656,0.645 -0.984,1.634 -0.984,2.948l0,11.17l-2.516,0l0,-16.776Zm-22.032,7.882l0,2.186c0,0.276 0.011,0.542 0.043,0.808c0.046,0.698 0.14,1.359 0.281,1.984c0.14,0.62 0.369,1.099 0.676,1.443c0.261,0.235 0.584,0.407 0.964,0.5c0.385,0.099 0.781,0.161 1.213,0.183l1.678,0c1.448,0 2.562,-0.204 3.333,-0.61c0.771,-0.417 1.208,-1.406 1.303,-2.994c0.02,-0.334 0.041,-0.663 0.052,-0.97c0.009,-0.317 0.02,-0.64 0.02,-0.973c0.021,-0.319 0.032,-0.631 0.032,-0.959l0,-0.953c0,-2.068 -0.188,-3.541 -0.568,-4.437c-0.38,-0.88 -1.594,-1.334 -3.642,-1.334l-0.53,0c-2.167,0 -3.516,0.344 -4.052,1.011c-0.536,0.676 -0.803,2.203 -0.803,4.577l0,0.538Zm-2.619,0.057c0,-2.844 0.422,-4.928 1.276,-6.251c0.848,-1.317 2.807,-1.973 5.875,-1.973c3.208,0 5.292,0.557 6.249,1.667c0.959,1.118 1.438,3.254 1.438,6.421c0,2.749 -0.291,4.973 -0.88,6.677c-0.583,1.703 -2.604,2.552 -6.052,2.552c-2.995,0 -5.063,-0.464 -6.198,-1.396c-1.141,-0.937 -1.708,-2.973 -1.708,-6.114l0,-1.583Zm-8.734,-7.939l0,2.048l-4.423,0l0,14.728l-2.547,0l0,-14.728l-2.552,0l0,-2.048l2.552,0l0,-2.478c0,-1.943 0.438,-3.255 1.328,-3.959c0.886,-0.687 2.24,-1.036 4.063,-1.036c0.141,0 0.281,0.005 0.412,0.016c0.129,0.009 0.255,0.02 0.375,0.02c0.12,0 0.245,0.005 0.38,0.016c0.13,0.011 0.27,0.021 0.412,0.021l0,2.047c-0.314,-0.052 -0.615,-0.073 -0.918,-0.073l-0.916,0c-0.98,0 -1.656,0.224 -2.026,0.666c-0.375,0.448 -0.563,1.136 -0.563,2.042l0,2.718l4.423,0Zm-32.662,0l2.334,0l0,2.158c0.645,-1.032 1.473,-1.71 2.478,-2.032c1.006,-0.323 2.084,-0.484 3.235,-0.484c2.276,0 3.869,0.437 4.781,1.312c0.911,0.876 1.364,2.448 1.364,4.724l0,11.098l-2.552,0l0,-10.905c0,-1.688 -0.265,-2.797 -0.792,-3.355c-0.525,-0.552 -1.64,-0.828 -3.338,-0.828c-1.604,0 -2.843,0.37 -3.703,1.115c-0.864,0.745 -1.292,1.969 -1.292,3.677l0,10.296l-2.515,0l0,-16.776Zm-9.917,0l0,16.776l-2.552,0l0,-16.776l2.552,0Zm0,-7.186l0,2.765l-2.552,0l0,-2.765l2.552,0Zm-41.541,15.068l0,2.186c0,0.276 0.01,0.542 0.036,0.808c0.046,0.698 0.141,1.359 0.281,1.984c0.147,0.62 0.371,1.099 0.683,1.443c0.26,0.235 0.582,0.407 0.964,0.5c0.38,0.099 0.78,0.161 1.208,0.183l1.677,0c1.452,0 2.561,-0.204 3.339,-0.61c0.77,-0.417 1.202,-1.406 1.301,-2.994c0.021,-0.334 0.036,-0.663 0.052,-0.97c0.011,-0.317 0.016,-0.64 0.016,-0.973c0.025,-0.319 0.036,-0.631 0.036,-0.959l0,-0.953c0,-2.068 -0.192,-3.541 -0.572,-4.437c-0.381,-0.88 -1.595,-1.334 -3.636,-1.334l-0.536,0c-2.167,0 -3.516,0.344 -4.048,1.011c-0.536,0.676 -0.807,2.203 -0.807,4.577l0,0.538l0.006,0Zm-2.626,0.057c0,-2.844 0.427,-4.928 1.276,-6.251c0.85,-1.317 2.808,-1.973 5.875,-1.973c3.215,0 5.297,0.557 6.256,1.667c0.959,1.118 1.437,3.254 1.437,6.421c0,2.749 -0.297,4.973 -0.88,6.677c-0.589,1.703 -2.609,2.552 -6.057,2.552c-2.995,0 -5.063,-0.464 -6.204,-1.396c-1.135,-0.937 -1.703,-2.973 -1.703,-6.114l0,-1.583Zm-11.068,8.837l-2.838,0l0,-13.036l-2.334,2.298l0,-2.59l2.334,-2.265l0,-11.353l2.838,0l0,9.093l2.303,-2.303l0,2.516l-2.303,2.303l0,15.337Zm-26.156,-8.894l0,2.186c0,0.276 0.011,0.542 0.032,0.808c0.047,0.698 0.14,1.359 0.286,1.984c0.141,0.62 0.365,1.099 0.677,1.443c0.265,0.235 0.584,0.407 0.964,0.5c0.375,0.099 0.787,0.161 1.213,0.183l1.672,0c1.454,0 2.563,-0.204 3.339,-0.61c0.771,-0.417 1.203,-1.406 1.301,-2.994c0.027,-0.334 0.038,-0.663 0.054,-0.97c0.009,-0.317 0.014,-0.64 0.014,-0.973c0.027,-0.319 0.038,-0.631 0.038,-0.959l0,-0.953c0,-2.068 -0.188,-3.541 -0.574,-4.437c-0.38,-0.88 -1.589,-1.334 -3.636,-1.334l-0.536,0c-2.161,0 -3.51,0.344 -4.046,1.011c-0.538,0.676 -0.803,2.203 -0.803,4.577l0.005,0.538Zm-2.629,0.057c0,-2.844 0.427,-4.928 1.276,-6.251c0.853,-1.317 2.812,-1.973 5.88,-1.973c3.208,0 5.291,0.557 6.249,1.667c0.959,1.118 1.438,3.254 1.438,6.421c0,2.749 -0.291,4.973 -0.88,6.677c-0.588,1.703 -2.604,2.552 -6.058,2.552c-2.994,0 -5.057,-0.464 -6.197,-1.396c-1.136,-0.937 -1.708,-2.973 -1.708,-6.114l0,-1.583Zm-19.188,-15.125l0,13.942l1.005,0l6.036,-6.756l3.094,0l-7.151,7.724l8.443,9.052l-3.307,0l-7.115,-8.077l-1.005,0l0,8.077l-2.552,0l0,-23.962l2.552,0Zm430.645,-142.902l126.344,0l0,18.052l-54.14,0l0,108.298l-18.057,0l0,-108.298l-54.147,0l0,-18.052Zm-18.057,18.052l-108.291,0l0,36.094l108.291,0l0,18.052l-108.291,0l0,36.1l108.291,0l0,18.052l-126.344,0l0,-126.35l126.344,0l0,18.052Zm-144.396,-18.052l0,18.052l-90.244,0c-12.032,0 -18.047,6.011 -18.047,18.052c0,12.032 6.015,18.042 18.047,18.042l54.151,0c24.062,0 36.093,12.037 36.093,36.105c0,24.061 -12.031,36.099 -36.093,36.099l-90.25,0l0,-18.052l90.25,0c12.032,0 18.046,-6.016 18.046,-18.047c0,-12.032 -6.014,-18.053 -18.046,-18.053l-54.151,0c-24.068,0 -36.099,-12.031 -36.099,-36.094c0,-24.073 12.031,-36.104 36.099,-36.104l90.244,0Zm-144.395,18.052l-108.297,0l0,36.094l108.297,0l0,18.052l-108.297,0l0,36.1l108.297,0l0,18.052l-126.349,0l0,-126.35l126.349,0l0,18.052Zm-388.01,146.88l-37.683,0l0,-263.765l188.401,0c50.239,0 75.364,25.125 75.364,75.36c0,50.239 -25.125,75.364 -75.364,75.364l-37.677,0l188.401,188.401l-56.521,0l-226.083,-226.078l131.88,0c25.126,0 37.683,-12.563 37.683,-37.687c0,-25.115 -12.557,-37.677 -37.683,-37.677l-150.718,0l0,226.082Zm816.905,43.552l4.516,0l0,31.61l-4.516,0l0,-31.61Zm-9.02,0l4.516,0l0,31.61l-4.516,0l0,-31.61Zm-31.625,31.61l-4.511,0l0,-31.61l15.803,15.808l15.806,-15.808l0,31.61l-4.51,0l0,-20.323l-11.296,11.292l-11.292,-11.292l0,20.323Zm-36.126,-13.547l0,9.032l18.068,0c3.011,0 4.516,-1.505 4.516,-4.516c0,-3.011 -1.505,-4.516 -4.516,-4.516l-18.068,0Zm0,-13.541l0,9.03l18.068,0c3.011,0 4.516,-1.509 4.516,-4.52c0,-3.01 -1.505,-4.51 -4.516,-4.51l-18.068,0Zm-4.51,27.088l0,-31.61l22.578,0c6.027,0 9.032,2.636 9.032,7.902c0,5.27 -1.505,7.906 -4.516,7.906c3.011,0 4.516,2.63 4.516,7.902c0,5.27 -3.005,7.9 -9.032,7.9l-22.578,0Zm-9.036,-31.61l4.521,0l0,31.61l-15.813,-15.802l-15.807,15.802l0,-31.61l4.511,0l0,20.323l11.296,-11.291l11.292,11.291l0,-20.323Zm-70.183,0l0,13.552l22.584,0l0,-13.552l4.516,0l0,31.61l-4.516,0l0,-13.547l-22.584,0l0,13.547l-4.515,0l0,-31.61l4.515,0Zm-40.64,0l31.609,0l0,4.522l-13.546,0l0,27.088l-4.516,0l0,-27.088l-13.547,0l0,-4.522Zm-36.136,31.61l31.609,-31.61l0,31.61l-4.509,0l0,-20.323l-20.324,20.323l-6.776,0Zm67.287,-83.104c0,-2.088 -0.25,-3.474 -0.735,-4.172c-0.495,-0.692 -1.843,-1.042 -4.047,-1.042c-1.932,0 -3.218,0.36 -3.822,1.079c-0.61,0.724 -0.922,2.099 -0.922,4.135l9.526,0Zm-0.068,4.776l2.584,0c0,2.469 -0.667,3.964 -1.979,4.494c-1.319,0.527 -3.037,0.787 -5.172,0.787c-3.136,0 -5.172,-0.599 -6.104,-1.796c-0.943,-1.199 -1.407,-3.319 -1.407,-6.355c0,-2.926 0.359,-5.166 1.078,-6.724c0.72,-1.557 2.745,-2.333 6.073,-2.333c3.136,0 5.167,0.521 6.093,1.583c0.918,1.052 1.396,3.13 1.418,6.25l0,1.255l-12.079,0c0,1.871 0.204,3.365 0.6,4.491c0.395,1.124 1.713,1.692 3.968,1.692l1.453,0c0.276,0 0.574,-0.026 0.88,-0.074c0.37,-0.025 0.708,-0.082 1.042,-0.176c0.333,-0.094 0.625,-0.229 0.865,-0.396c0.24,-0.166 0.401,-0.39 0.484,-0.666c0.084,-0.276 0.136,-0.558 0.161,-0.844c0.027,-0.094 0.042,-0.203 0.042,-0.323l0,-0.324l0,-0.541Zm-36.01,-11.678l2.334,0l0,2.158c0.65,-1.032 1.478,-1.71 2.489,-2.032c0.989,-0.323 2.077,-0.484 3.229,-0.484c2.276,0 3.87,0.437 4.771,1.312c0.916,0.876 1.369,2.448 1.369,4.724l0,11.098l-2.546,0l0,-10.905c0,-1.688 -0.266,-2.797 -0.792,-3.355c-0.526,-0.552 -1.64,-0.828 -3.339,-0.828c-1.609,0 -2.839,0.37 -3.703,1.115c-0.864,0.745 -1.292,1.969 -1.292,3.677l0,10.296l-2.52,0l0,-16.776Zm-21.849,0l12.109,0l0,2.344l-10.026,12.391l10.026,0l0,2.041l-12.937,0l0,-2.328l9.995,-12.468l-9.167,0l0,-1.98Zm-12.469,10.672l2.48,0c0,2.584 -0.538,4.276 -1.615,5.068c-1.079,0.792 -2.891,1.188 -5.423,1.188c-3.546,0 -5.676,-0.724 -6.385,-2.177c-0.708,-1.443 -1.057,-3.745 -1.057,-6.88c0,-2.855 0.485,-4.907 1.469,-6.167c0.984,-1.256 2.964,-1.885 5.932,-1.885c1.844,0 3.437,0.301 4.776,0.896c1.344,0.604 2.011,2.015 2.011,4.244l0,0.251c-0.022,0.052 -0.027,0.093 -0.027,0.145l0,0.141l-2.443,0c0,-1.51 -0.312,-2.485 -0.916,-2.944c-0.614,-0.452 -1.645,-0.681 -3.109,-0.681c-2.229,0 -3.636,0.348 -4.208,1.052c-0.573,0.703 -0.865,2.244 -0.865,4.629l0,1.678c0,1.885 0.224,3.297 0.65,4.234c0.439,0.943 1.74,1.412 3.918,1.412c1.864,0 3.136,-0.218 3.812,-0.666c0.661,-0.443 1,-1.62 1,-3.538m-20.266,-10.672l-4.744,17.756c-0.053,0.14 -0.084,0.296 -0.125,0.463c-0.032,0.167 -0.084,0.333 -0.125,0.505c-0.407,1.412 -1,2.704 -1.782,3.86c-0.776,1.162 -2.005,1.746 -3.682,1.746c-0.192,0 -0.386,-0.022 -0.594,-0.058c-0.197,-0.032 -0.401,-0.073 -0.593,-0.125l0,-2.011c0.077,0 0.151,0.006 0.244,0.016c0.073,0.011 0.157,0.02 0.224,0.02c0.068,0.022 0.152,0.038 0.235,0.038l0.234,0c0.864,0 1.516,-0.344 1.959,-1.027c0.448,-0.683 0.781,-1.427 0.984,-2.249c0.12,-0.402 0.229,-0.792 0.312,-1.162c0.079,-0.376 0.156,-0.709 0.224,-0.996l-0.885,0l-6.083,-16.776l2.552,0l5.249,14.948l3.814,-14.948l2.582,0Zm-23.177,0.038l0,1.973l-6.468,0l0,10.313c0,0.963 0.145,1.635 0.427,2.036c0.292,0.391 0.937,0.588 1.942,0.588c1.126,0 1.803,-0.27 2.032,-0.822c0.224,-0.552 0.343,-1.276 0.343,-2.156l0,-1.12l2.376,0c0,1.756 -0.272,3.213 -0.797,4.385c-0.527,1.177 -1.855,1.761 -3.99,1.761c-1.865,0 -3.152,-0.333 -3.844,-1c-0.697,-0.677 -1.036,-1.901 -1.036,-3.672l0,-10.313l-2.198,0l0,-1.973l2.198,0l0,-4.063l2.547,0l0,4.063l6.468,0Zm-31.801,11.421c0,1.469 0.296,2.427 0.896,2.901c0.593,0.464 1.582,0.698 2.968,0.698l0.75,0c0.266,0 0.52,-0.01 0.787,-0.036c1.004,-0.047 1.921,-0.271 2.76,-0.662c0.833,-0.401 1.255,-1.218 1.255,-2.464c0,-1.51 -0.454,-2.432 -1.364,-2.765c-0.902,-0.339 -1.99,-0.505 -3.256,-0.505l-0.61,0l-0.681,0c-0.24,0 -0.475,0.016 -0.713,0.032c-0.407,0.052 -0.814,0.129 -1.199,0.233c-0.396,0.109 -0.724,0.287 -0.984,0.527c-0.193,0.14 -0.333,0.333 -0.412,0.573c-0.083,0.239 -0.14,0.495 -0.167,0.749c-0.02,0.126 -0.03,0.246 -0.03,0.36l0,0.359Zm0.541,-6.609l-2.593,0c0,-2.323 0.634,-3.719 1.905,-4.183c1.272,-0.473 2.855,-0.703 4.745,-0.703c2.323,0 4.11,0.323 5.37,0.97c1.261,0.65 1.89,2.29 1.89,4.921l0,10.921l-2.338,0l0.105,-1.718c-0.72,0.906 -1.563,1.469 -2.532,1.666c-0.964,0.21 -2.005,0.308 -3.104,0.308c-2.068,0 -3.683,-0.308 -4.849,-0.917c-1.178,-0.615 -1.766,-2.063 -1.766,-4.369c0,-2.224 0.615,-3.626 1.855,-4.198c1.233,-0.578 2.796,-0.865 4.687,-0.865c0.261,0 0.537,0.005 0.828,0.016c0.281,0.016 0.573,0.031 0.865,0.057c0.427,0.026 0.853,0.078 1.271,0.162c0.421,0.082 0.822,0.197 1.202,0.344c0.266,0.093 0.49,0.244 0.688,0.448c0.192,0.202 0.355,0.437 0.5,0.702l0,-2.016c0,-2.062 -0.292,-3.344 -0.865,-3.844c-0.572,-0.504 -1.891,-0.754 -3.952,-0.754c-0.193,0 -0.423,0.005 -0.683,0.016c-0.265,0.016 -0.516,0.03 -0.75,0.057c-0.364,0.02 -0.703,0.077 -1.01,0.177c-0.313,0.094 -0.573,0.228 -0.792,0.395c-0.234,0.167 -0.412,0.381 -0.5,0.631c-0.098,0.25 -0.156,0.521 -0.177,0.808c-0.027,0.072 -0.041,0.145 -0.041,0.233l0,0.464c0,0.088 0.01,0.177 0.041,0.271m-37.88,-4.85l2.407,0l0,2.516c0.552,-1.052 1.333,-1.776 2.337,-2.172c1.005,-0.401 2.063,-0.593 3.163,-0.593c0.192,0 0.38,0.005 0.557,0.021c0.181,0.004 0.364,0.01 0.556,0.01c0.912,0.1 1.767,0.344 2.568,0.734c0.803,0.402 1.365,1.063 1.672,2c0.625,-1.052 1.437,-1.786 2.443,-2.192c1.01,-0.412 2.098,-0.609 3.27,-0.609c2.204,0 3.767,0.452 4.688,1.359c0.927,0.912 1.386,2.458 1.386,4.636l0,11.066l-2.626,0l0,-11.306c0,-1.443 -0.254,-2.418 -0.77,-2.932c-0.516,-0.522 -1.506,-0.782 -2.964,-0.782c-0.239,0 -0.5,0.016 -0.771,0.036c-0.276,0.032 -0.557,0.063 -0.843,0.115c-0.6,0.093 -1.177,0.281 -1.729,0.552c-0.547,0.281 -0.948,0.693 -1.183,1.245c-0.145,0.312 -0.24,0.646 -0.292,1.006c-0.046,0.364 -0.077,0.713 -0.104,1.052l0,11.014l-2.552,0l0,-11.093c-0.073,-1.557 -0.338,-2.593 -0.792,-3.109c-0.453,-0.516 -1.494,-0.782 -3.124,-0.782c-1.87,0 -3.152,0.459 -3.844,1.375c-0.698,0.912 -1.042,2.229 -1.042,3.964l0,9.645l-2.411,0l0,-16.776Zm-20.552,0l2.443,0l-0.11,1.943c0.5,-0.828 1.156,-1.421 1.959,-1.771c0.801,-0.353 1.681,-0.53 2.64,-0.53c1.697,0 2.943,0.401 3.719,1.202c0.781,0.803 1.166,2.038 1.166,3.719l0,0.485c0,0.162 -0.01,0.334 -0.03,0.52l-2.443,0c0.02,-0.186 0.031,-0.396 0.031,-0.609l0,-0.645c0,-1.032 -0.246,-1.73 -0.735,-2.084c-0.489,-0.359 -1.229,-0.542 -2.213,-0.542c-1.292,0 -2.266,0.323 -2.927,0.97c-0.656,0.645 -0.984,1.634 -0.984,2.948l0,11.17l-2.516,0l0,-16.776Zm-22.032,7.882l0,2.186c0,0.276 0.011,0.542 0.043,0.808c0.046,0.698 0.14,1.359 0.281,1.984c0.14,0.62 0.369,1.099 0.676,1.443c0.261,0.235 0.584,0.407 0.964,0.5c0.385,0.099 0.781,0.161 1.213,0.183l1.678,0c1.448,0 2.562,-0.204 3.333,-0.61c0.771,-0.417 1.208,-1.406 1.303,-2.994c0.02,-0.334 0.041,-0.663 0.052,-0.97c0.009,-0.317 0.02,-0.64 0.02,-0.973c0.021,-0.319 0.032,-0.631 0.032,-0.959l0,-0.953c0,-2.068 -0.188,-3.541 -0.568,-4.437c-0.38,-0.88 -1.594,-1.334 -3.642,-1.334l-0.53,0c-2.167,0 -3.516,0.344 -4.052,1.011c-0.536,0.676 -0.803,2.203 -0.803,4.577l0,0.538Zm-2.619,0.057c0,-2.844 0.422,-4.928 1.276,-6.251c0.848,-1.317 2.807,-1.973 5.875,-1.973c3.208,0 5.292,0.557 6.249,1.667c0.959,1.118 1.438,3.254 1.438,6.421c0,2.749 -0.291,4.973 -0.88,6.677c-0.583,1.703 -2.604,2.552 -6.052,2.552c-2.995,0 -5.063,-0.464 -6.198,-1.396c-1.141,-0.937 -1.708,-2.973 -1.708,-6.114l0,-1.583Zm-8.734,-7.939l0,2.048l-4.423,0l0,14.728l-2.547,0l0,-14.728l-2.552,0l0,-2.048l2.552,0l0,-2.478c0,-1.943 0.438,-3.255 1.328,-3.959c0.886,-0.687 2.24,-1.036 4.063,-1.036c0.141,0 0.281,0.005 0.412,0.016c0.129,0.009 0.255,0.02 0.375,0.02c0.12,0 0.245,0.005 0.38,0.016c0.13,0.011 0.27,0.021 0.412,0.021l0,2.047c-0.314,-0.052 -0.615,-0.073 -0.918,-0.073l-0.916,0c-0.98,0 -1.656,0.224 -2.026,0.666c-0.375,0.448 -0.563,1.136 -0.563,2.042l0,2.718l4.423,0Zm-32.662,0l2.334,0l0,2.158c0.645,-1.032 1.473,-1.71 2.478,-2.032c1.006,-0.323 2.084,-0.484 3.235,-0.484c2.276,0 3.869,0.437 4.781,1.312c0.911,0.876 1.364,2.448 1.364,4.724l0,11.098l-2.552,0l0,-10.905c0,-1.688 -0.265,-2.797 -0.792,-3.355c-0.525,-0.552 -1.64,-0.828 -3.338,-0.828c-1.604,0 -2.843,0.37 -3.703,1.115c-0.864,0.745 -1.292,1.969 -1.292,3.677l0,10.296l-2.515,0l0,-16.776Zm-9.917,0l0,16.776l-2.552,0l0,-16.776l2.552,0Zm0,-7.186l0,2.765l-2.552,0l0,-2.765l2.552,0Zm-41.541,15.068l0,2.186c0,0.276 0.01,0.542 0.036,0.808c0.046,0.698 0.141,1.359 0.281,1.984c0.147,0.62 0.371,1.099 0.683,1.443c0.26,0.235 0.582,0.407 0.964,0.5c0.38,0.099 0.78,0.161 1.208,0.183l1.677,0c1.452,0 2.561,-0.204 3.339,-0.61c0.77,-0.417 1.202,-1.406 1.301,-2.994c0.021,-0.334 0.036,-0.663 0.052,-0.97c0.011,-0.317 0.016,-0.64 0.016,-0.973c0.025,-0.319 0.036,-0.631 0.036,-0.959l0,-0.953c0,-2.068 -0.192,-3.541 -0.572,-4.437c-0.381,-0.88 -1.595,-1.334 -3.636,-1.334l-0.536,0c-2.167,0 -3.516,0.344 -4.048,1.011c-0.536,0.676 -0.807,2.203 -0.807,4.577l0,0.538l0.006,0Zm-2.626,0.057c0,-2.844 0.427,-4.928 1.276,-6.251c0.85,-1.317 2.808,-1.973 5.875,-1.973c3.215,0 5.297,0.557 6.256,1.667c0.959,1.118 1.437,3.254 1.437,6.421c0,2.749 -0.297,4.973 -0.88,6.677c-0.589,1.703 -2.609,2.552 -6.057,2.552c-2.995,0 -5.063,-0.464 -6.204,-1.396c-1.135,-0.937 -1.703,-2.973 -1.703,-6.114l0,-1.583Zm-11.068,8.837l-2.838,0l0,-13.036l-2.334,2.298l0,-2.59l2.334,-2.265l0,-11.353l2.838,0l0,9.093l2.303,-2.303l0,2.516l-2.303,2.303l0,15.337Zm-26.156,-8.894l0,2.186c0,0.276 0.011,0.542 0.032,0.808c0.047,0.698 0.14,1.359 0.286,1.984c0.141,0.62 0.365,1.099 0.677,1.443c0.265,0.235 0.584,0.407 0.964,0.5c0.375,0.099 0.787,0.161 1.213,0.183l1.672,0c1.454,0 2.563,-0.204 3.339,-0.61c0.771,-0.417 1.203,-1.406 1.301,-2.994c0.027,-0.334 0.038,-0.663 0.054,-0.97c0.009,-0.317 0.014,-0.64 0.014,-0.973c0.027,-0.319 0.038,-0.631 0.038,-0.959l0,-0.953c0,-2.068 -0.188,-3.541 -0.574,-4.437c-0.38,-0.88 -1.589,-1.334 -3.636,-1.334l-0.536,0c-2.161,0 -3.51,0.344 -4.046,1.011c-0.538,0.676 -0.803,2.203 -0.803,4.577l0.005,0.538Zm-2.629,0.057c0,-2.844 0.427,-4.928 1.276,-6.251c0.853,-1.317 2.812,-1.973 5.88,-1.973c3.208,0 5.291,0.557 6.249,1.667c0.959,1.118 1.438,3.254 1.438,6.421c0,2.749 -0.291,4.973 -0.88,6.677c-0.588,1.703 -2.604,2.552 -6.058,2.552c-2.994,0 -5.057,-0.464 -6.197,-1.396c-1.136,-0.937 -1.708,-2.973 -1.708,-6.114l0,-1.583Zm-19.188,-15.125l0,13.942l1.005,0l6.036,-6.756l3.094,0l-7.151,7.724l8.443,9.052l-3.307,0l-7.115,-8.077l-1.005,0l0,8.077l-2.552,0l0,-23.962l2.552,0Zm430.645,-142.902l126.344,0l0,18.052l-54.14,0l0,108.298l-18.057,0l0,-108.298l-54.147,0l0,-18.052Zm-18.057,18.052l-108.291,0l0,36.094l108.291,0l0,18.052l-108.291,0l0,36.1l108.291,0l0,18.052l-126.344,0l0,-126.35l126.344,0l0,18.052Zm-144.396,-18.052l0,18.052l-90.244,0c-12.032,0 -18.047,6.011 -18.047,18.052c0,12.032 6.015,18.042 18.047,18.042l54.151,0c24.062,0 36.093,12.037 36.093,36.105c0,24.061 -12.031,36.099 -36.093,36.099l-90.25,0l0,-18.052l90.25,0c12.032,0 18.046,-6.016 18.046,-18.047c0,-12.032 -6.014,-18.053 -18.046,-18.053l-54.151,0c-24.068,0 -36.099,-12.031 -36.099,-36.094c0,-24.073 12.031,-36.104 36.099,-36.104l90.244,0Zm-144.395,18.052l-108.297,0l0,36.094l108.297,0l0,18.052l-108.297,0l0,36.1l108.297,0l0,18.052l-126.349,0l0,-126.35l126.349,0l0,18.052Zm-388.01,146.88l-37.683,0l0,-263.765l188.401,0c50.239,0 75.364,25.125 75.364,75.36c0,50.239 -25.125,75.364 -75.364,75.364l-37.677,0l188.401,188.401l-56.521,0l-226.083,-226.078l131.88,0c25.126,0 37.683,-12.563 37.683,-37.687c0,-25.115 -12.557,-37.677 -37.683,-37.677l-150.718,0l0,226.082Z" style="fill:#16334f;fill-rule:nonzero;"/></svg>